<svg width="2966" height="505" viewBox="0 0 2966 505" fill="none" xmlns="http://www.w3.org/2000/svg">
<path d="M201.619 199.587C203.775 257.254 204.638 314.922 205.932 372.589C207.226 414.647 142.521 414.647 141.658 372.589C141.227 355.679 140.796 338.335 139.933 320.992L75.2274 318.39C70.4823 340.07 66.6 362.183 62.7176 383.862C55.3844 425.053 -6.73282 407.71 0.600456 366.519C10.522 310.152 21.7376 254.219 45.0315 201.322C62.7176 162.299 94.2076 108.1 135.619 90.323C199.462 63.0069 200.324 161.865 201.619 199.587ZM95.9331 246.848C95.0704 249.45 94.2076 251.618 93.3449 254.219C108.443 254.653 123.541 255.52 138.639 255.954C138.207 236.876 137.776 218.231 136.913 199.587C136.482 192.216 136.913 183.544 136.482 174.873C132.168 180.076 127.854 185.712 123.972 191.783C112.756 208.693 103.266 227.77 95.9331 246.848Z" fill="#034AB1"/>
<path d="M414.887 127.612C420.557 86.3243 483.792 103.709 477.687 144.997C465.912 224.965 451.084 304.064 433.64 383.164C427.97 408.806 385.232 416.629 373.893 390.552C359.937 359.26 346.418 327.533 332.462 295.807C323.74 333.618 315.454 371.429 308.476 409.675C300.626 450.963 237.391 433.144 245.241 392.29C258.324 323.187 274.024 254.953 292.34 187.154C299.318 161.947 340.749 152.385 352.087 179.331L390.901 267.557C399.623 221.054 407.909 174.55 414.887 127.612Z" fill="#034AB1"/>
<path d="M680.708 298.537C722.098 300.276 722.098 365.477 680.708 363.738C641.473 362 602.239 363.738 563.435 370.258C545.327 372.866 519.458 362 522.476 338.527C532.393 258.547 544.034 178.568 558.262 98.588C559.124 93.8066 560.849 89.4599 563.004 85.9825C568.178 77.7237 576.801 71.6383 588.873 71.6383C619.916 70.3343 651.39 70.7689 682.432 72.9423C723.823 75.985 723.823 141.186 682.432 138.143C660.444 136.839 638.886 135.97 616.898 135.97C614.311 152.922 611.293 169.874 608.706 186.392C620.347 186.827 631.557 187.261 642.767 188.565C660.444 190.304 675.103 202.04 675.103 221.166C675.103 237.683 660.444 255.505 642.767 253.766C628.108 252.027 613.449 251.593 598.79 251.593C596.634 268.11 594.047 284.628 591.891 301.145C621.209 298.537 650.959 297.233 680.708 298.537Z" fill="#034AB1"/>
<path d="M893.855 164.677C894.482 165.854 894.796 166.873 894.796 167.737C894.874 168.521 894.639 169.266 894.09 169.973C893.541 170.6 892.678 171.189 891.501 171.738C889.618 172.601 888.127 172.797 887.029 172.326C886.009 171.856 885.067 170.718 884.204 168.913L854.783 106.304L825.596 168.796C824.733 170.6 823.753 171.738 822.654 172.209C821.634 172.679 820.144 172.483 818.182 171.62C817.005 171.149 816.142 170.561 815.593 169.855C815.122 169.149 814.926 168.286 815.005 167.266C815.161 166.246 815.554 165.069 816.181 163.735L849.957 93.2409C850.428 92.2994 851.095 91.5541 851.958 91.0049C852.9 90.3772 853.88 90.0634 854.9 90.0634C855.606 90.0634 856.273 90.1811 856.901 90.4165C857.529 90.6518 858.078 91.0049 858.549 91.4756C859.019 91.9464 859.412 92.574 859.725 93.3586L893.855 164.677ZM832.658 148.789L836.659 139.727H873.142L877.025 148.789H832.658ZM926.348 172.326C922.896 172.326 919.679 171.699 916.698 170.443C913.795 169.188 911.245 167.423 909.048 165.147C906.851 162.872 905.125 160.126 903.87 156.909C902.693 153.693 902.105 150.044 902.105 145.965V120.427C902.105 119.328 902.222 118.387 902.458 117.602C902.693 116.817 903.164 116.229 903.87 115.837C904.654 115.366 905.792 115.131 907.283 115.131C908.773 115.131 909.872 115.366 910.578 115.837C911.363 116.307 911.873 116.935 912.108 117.72C912.343 118.504 912.461 119.446 912.461 120.544V146.082C912.461 149.299 913.01 152.163 914.109 154.673C915.207 157.105 916.855 158.988 919.051 160.322C921.327 161.656 924.073 162.323 927.289 162.323C930.585 162.323 933.409 161.656 935.763 160.322C938.195 158.988 940.039 157.105 941.294 154.673C942.628 152.163 943.295 149.299 943.295 146.082V120.427C943.295 119.328 943.412 118.387 943.648 117.602C943.883 116.817 944.354 116.229 945.06 115.837C945.845 115.366 946.982 115.131 948.473 115.131C949.964 115.131 951.062 115.366 951.768 115.837C952.553 116.307 953.024 116.935 953.18 117.72C953.416 118.504 953.534 119.446 953.534 120.544V167.266C953.534 168.207 953.416 169.07 953.18 169.855C953.024 170.561 952.553 171.11 951.768 171.502C951.062 171.895 949.964 172.091 948.473 172.091C947.375 172.091 946.472 171.973 945.766 171.738C945.139 171.502 944.668 171.189 944.354 170.796C944.04 170.404 943.805 169.973 943.648 169.502C943.569 168.953 943.53 168.403 943.53 167.854L944.001 162.794C943.216 163.735 942.275 164.755 941.176 165.854C940.078 166.952 938.783 168.011 937.293 169.031C935.881 169.973 934.272 170.757 932.468 171.385C930.663 172.012 928.623 172.326 926.348 172.326ZM994.485 172.209C990.797 172.209 987.659 171.856 985.07 171.149C982.559 170.443 980.48 169.345 978.832 167.854C977.185 166.364 976.008 164.441 975.302 162.088C974.596 159.655 974.243 156.674 974.243 153.143V101.126C974.243 100.028 974.36 99.086 974.596 98.3015C974.831 97.5169 975.302 96.9285 976.008 96.5362C976.714 96.0654 977.813 95.83 979.303 95.83C980.794 95.83 981.932 96.0654 982.716 96.5362C983.501 96.9285 984.011 97.5169 984.246 98.3015C984.481 99.0076 984.599 99.9098 984.599 101.008V153.143C984.599 155.183 984.756 156.831 985.07 158.086C985.462 159.263 986.011 160.165 986.717 160.793C987.502 161.421 988.522 161.813 989.777 161.97C991.033 162.127 992.563 162.205 994.367 162.205C995.622 162.205 996.642 162.323 997.427 162.558C998.212 162.794 998.8 163.264 999.192 163.971C999.585 164.677 999.781 165.736 999.781 167.148C999.781 168.639 999.545 169.776 999.075 170.561C998.682 171.267 998.055 171.699 997.192 171.856C996.407 172.091 995.505 172.209 994.485 172.209ZM968.123 116.543L979.421 116.661L995.779 116.425C996.878 116.425 997.819 116.543 998.604 116.778C999.388 116.935 999.977 117.406 1000.37 118.19C1000.84 118.897 1001.08 119.995 1001.08 121.486C1001.08 122.976 1000.88 124.114 1000.49 124.899C1000.09 125.605 999.506 126.075 998.721 126.311C997.937 126.546 996.995 126.664 995.897 126.664L979.774 126.429L967.888 126.546C966.24 126.546 965.102 126.154 964.475 125.369C963.926 124.585 963.651 123.29 963.651 121.486C963.651 119.76 964.004 118.504 964.71 117.72C965.416 116.935 966.554 116.543 968.123 116.543ZM1017.67 172.209C1016.18 172.209 1015.04 171.973 1014.25 171.502C1013.55 171.11 1013.08 170.522 1012.84 169.737C1012.61 168.953 1012.49 168.011 1012.49 166.913V120.427C1012.49 119.328 1012.61 118.387 1012.84 117.602C1013.08 116.817 1013.55 116.229 1014.25 115.837C1015.04 115.444 1016.21 115.248 1017.78 115.248C1019.27 115.248 1020.37 115.484 1021.08 115.954C1021.79 116.347 1022.26 116.935 1022.49 117.72C1022.73 118.504 1022.84 119.485 1022.84 120.662V167.03C1022.84 168.129 1022.73 169.07 1022.49 169.855C1022.26 170.639 1021.75 171.228 1020.96 171.62C1020.26 172.012 1019.16 172.209 1017.67 172.209ZM1017.67 101.126C1015.94 101.126 1014.65 100.891 1013.78 100.42C1012.92 99.8706 1012.33 99.1253 1012.02 98.1838C1011.78 97.2423 1011.66 96.1439 1011.66 94.8886C1011.66 93.6332 1011.82 92.574 1012.13 91.711C1012.45 90.7695 1013.04 90.1026 1013.9 89.7103C1014.76 89.2396 1016.06 89.0042 1017.78 89.0042C1019.43 89.0042 1020.69 89.2396 1021.55 89.7103C1022.41 90.1811 1022.96 90.8872 1023.2 91.8287C1023.51 92.7702 1023.67 93.8686 1023.67 95.1239C1023.67 96.3792 1023.51 97.4777 1023.2 98.4191C1022.96 99.2822 1022.41 99.9491 1021.55 100.42C1020.69 100.891 1019.39 101.126 1017.67 101.126ZM1057.17 172.797C1055.28 172.797 1053.32 172.601 1051.28 172.209C1049.24 171.816 1047.24 171.267 1045.28 170.561C1043.4 169.776 1041.71 168.874 1040.22 167.854C1038.81 166.834 1037.75 165.697 1037.04 164.441C1036.65 163.657 1036.41 162.951 1036.34 162.323C1036.26 161.617 1036.37 160.95 1036.69 160.322C1037 159.695 1037.47 159.067 1038.1 158.439C1038.89 157.498 1039.67 157.066 1040.45 157.145C1041.24 157.145 1042.22 157.655 1043.4 158.675C1044.26 159.224 1045.28 159.852 1046.46 160.558C1047.63 161.185 1048.85 161.774 1050.1 162.323C1051.36 162.794 1052.62 163.225 1053.87 163.617C1055.2 163.931 1056.5 164.088 1057.75 164.088C1061.36 164.088 1064.27 163.421 1066.46 162.088C1068.66 160.675 1069.76 158.832 1069.76 156.556C1069.76 155.223 1069.48 154.085 1068.93 153.143C1068.39 152.202 1067.64 151.417 1066.7 150.79C1065.76 150.084 1064.7 149.495 1063.52 149.024C1062.34 148.554 1061.01 148.122 1059.52 147.73C1058.11 147.259 1056.69 146.828 1055.28 146.435C1053.16 145.886 1051.09 145.258 1049.05 144.552C1047.01 143.846 1045.16 142.944 1043.51 141.845C1041.87 140.669 1040.53 139.217 1039.51 137.491C1038.49 135.687 1037.98 133.411 1037.98 130.665C1037.98 127.448 1038.81 124.663 1040.45 122.31C1042.1 119.956 1044.42 118.151 1047.4 116.896C1050.38 115.562 1053.87 114.895 1057.87 114.895C1059.6 114.895 1061.21 115.013 1062.7 115.248C1064.19 115.484 1065.6 115.876 1066.93 116.425C1068.35 116.896 1069.68 117.484 1070.94 118.19C1072.19 118.818 1073.41 119.603 1074.58 120.544C1076 121.486 1076.74 122.506 1076.82 123.604C1076.9 124.702 1076.47 125.84 1075.52 127.017C1074.82 128.037 1074.03 128.704 1073.17 129.018C1072.31 129.253 1071.45 129.018 1070.58 128.312C1069.33 127.37 1067.99 126.546 1066.58 125.84C1065.17 125.134 1063.72 124.546 1062.23 124.075C1060.74 123.604 1059.21 123.369 1057.64 123.369C1055.68 123.369 1053.91 123.683 1052.34 124.31C1050.85 124.859 1049.67 125.722 1048.81 126.899C1048.03 127.998 1047.63 129.253 1047.63 130.665C1047.63 131.921 1047.95 132.941 1048.57 133.725C1049.28 134.51 1050.14 135.177 1051.16 135.726C1052.26 136.275 1053.52 136.785 1054.93 137.256C1056.42 137.648 1057.95 138.04 1059.52 138.433C1061.79 138.982 1064.11 139.649 1066.46 140.433C1068.9 141.139 1071.05 142.12 1072.94 143.375C1074.9 144.552 1076.47 146.161 1077.64 148.201C1078.9 150.162 1079.53 152.79 1079.53 156.086C1079.53 161.264 1077.49 165.344 1073.41 168.325C1069.33 171.306 1063.91 172.797 1057.17 172.797ZM1097.29 172.209C1095.8 172.209 1094.71 171.973 1094 171.502C1093.29 171.032 1092.82 170.404 1092.59 169.619C1092.35 168.835 1092.23 167.893 1092.23 166.795V120.191C1092.23 119.093 1092.35 118.19 1092.59 117.484C1092.82 116.778 1093.29 116.229 1094 115.837C1094.78 115.444 1095.92 115.248 1097.41 115.248C1099.14 115.248 1100.35 115.601 1101.06 116.307C1101.85 116.935 1102.24 118.073 1102.24 119.72L1101.77 124.781C1102.32 123.604 1103.14 122.427 1104.24 121.25C1105.34 120.073 1106.63 119.014 1108.12 118.073C1109.69 117.131 1111.34 116.386 1113.06 115.837C1114.79 115.288 1116.56 115.013 1118.36 115.013C1121.11 115.013 1123.54 115.523 1125.66 116.543C1127.85 117.484 1129.82 118.857 1131.54 120.662C1133.27 122.466 1134.72 124.702 1135.9 127.37C1137.47 124.781 1139.11 122.584 1140.84 120.78C1142.64 118.897 1144.68 117.484 1146.96 116.543C1149.23 115.523 1151.78 115.013 1154.61 115.013C1159.08 115.013 1162.81 116.151 1165.79 118.426C1168.85 120.623 1171.12 123.761 1172.61 127.841C1174.18 131.842 1174.97 136.667 1174.97 142.316V166.913C1174.97 168.011 1174.85 168.953 1174.62 169.737C1174.46 170.522 1173.99 171.11 1173.2 171.502C1172.5 171.973 1171.36 172.209 1169.79 172.209C1168.3 172.209 1167.16 171.973 1166.38 171.502C1165.67 171.032 1165.2 170.404 1164.96 169.619C1164.73 168.835 1164.61 167.893 1164.61 166.795V142.199C1164.61 138.668 1164.18 135.647 1163.32 133.137C1162.53 130.548 1161.28 128.547 1159.55 127.135C1157.9 125.722 1155.75 125.016 1153.08 125.016C1150.25 125.016 1147.74 125.722 1145.55 127.135C1143.43 128.468 1141.78 130.43 1140.6 133.019C1139.43 135.608 1138.84 138.668 1138.84 142.199V167.03C1138.84 168.207 1138.6 169.227 1138.13 170.09C1137.66 170.953 1136.96 171.542 1136.01 171.856C1135.07 172.248 1133.93 172.326 1132.6 172.091C1131.35 171.934 1130.4 171.62 1129.78 171.149C1129.15 170.679 1128.76 170.09 1128.6 169.384C1128.44 168.6 1128.36 167.737 1128.36 166.795V142.199C1128.36 138.668 1127.93 135.647 1127.07 133.137C1126.29 130.548 1125.03 128.547 1123.3 127.135C1121.66 125.722 1119.5 125.016 1116.83 125.016C1114.01 125.016 1111.5 125.762 1109.3 127.252C1107.18 128.665 1105.53 130.665 1104.36 133.254C1103.18 135.843 1102.59 138.825 1102.59 142.199V166.913C1102.59 168.011 1102.47 168.953 1102.24 169.737C1102 170.522 1101.49 171.11 1100.71 171.502C1100 171.973 1098.86 172.209 1097.29 172.209ZM1215.24 172.915C1211.39 172.915 1207.71 172.169 1204.17 170.679C1200.72 169.188 1197.62 167.148 1194.88 164.559C1192.13 161.891 1189.97 158.792 1188.4 155.262C1186.84 151.731 1186.05 147.887 1186.05 143.728C1186.05 139.649 1186.8 135.883 1188.29 132.431C1189.78 128.9 1191.86 125.801 1194.52 123.133C1197.19 120.466 1200.25 118.387 1203.7 116.896C1207.23 115.327 1211 114.542 1215 114.542C1220.42 114.542 1225.28 115.837 1229.59 118.426C1233.99 120.937 1237.48 124.389 1240.07 128.782C1242.66 133.176 1243.95 138.119 1243.95 143.611C1243.95 147.926 1243.17 151.888 1241.6 155.497C1240.03 159.028 1237.91 162.088 1235.24 164.677C1232.58 167.266 1229.52 169.306 1226.06 170.796C1222.61 172.209 1219 172.915 1215.24 172.915ZM1215 162.676C1218.3 162.676 1221.36 161.852 1224.18 160.205C1227.01 158.557 1229.28 156.282 1231.01 153.379C1232.73 150.476 1233.6 147.181 1233.6 143.493C1233.6 139.806 1232.77 136.55 1231.12 133.725C1229.56 130.901 1227.36 128.704 1224.53 127.135C1221.71 125.566 1218.49 124.781 1214.88 124.781C1211.43 124.781 1208.29 125.605 1205.47 127.252C1202.72 128.9 1200.49 131.136 1198.76 133.96C1197.11 136.785 1196.29 140.002 1196.29 143.611C1196.29 147.377 1197.15 150.711 1198.88 153.614C1200.6 156.439 1202.88 158.675 1205.7 160.322C1208.61 161.891 1211.71 162.676 1215 162.676ZM1294.23 195.04C1292.35 194.255 1291.25 193.353 1290.93 192.333C1290.62 191.313 1290.89 189.901 1291.76 188.096L1322.94 118.073C1323.81 116.268 1324.71 115.17 1325.65 114.778C1326.67 114.307 1328.08 114.464 1329.89 115.248C1331.77 116.111 1332.83 117.053 1333.07 118.073C1333.38 119.093 1333.14 120.466 1332.36 122.192L1300.94 192.568C1300.15 194.373 1299.29 195.432 1298.35 195.746C1297.41 196.06 1296.03 195.824 1294.23 195.04ZM1305.88 164.677L1278.93 123.133C1277.91 121.564 1277.52 120.27 1277.75 119.25C1277.99 118.151 1278.89 117.092 1280.46 116.072C1282.19 114.974 1283.56 114.581 1284.58 114.895C1285.68 115.131 1286.78 116.033 1287.87 117.602L1310.7 153.496L1305.88 164.677ZM826.185 296.209C824.851 296.209 823.792 295.973 823.007 295.502C822.301 295.032 821.791 294.404 821.477 293.619C821.242 292.756 821.124 291.776 821.124 290.677V219.006C821.124 217.986 821.281 217.123 821.595 216.417C821.909 215.711 822.458 215.162 823.243 214.77C824.106 214.299 825.282 214.063 826.773 214.063C828.499 214.063 829.715 214.22 830.421 214.534C831.128 214.848 831.834 215.397 832.54 216.182L876.79 278.791V219.006C876.79 217.986 876.908 217.123 877.143 216.417C877.457 215.711 878.006 215.162 878.791 214.77C879.575 214.299 880.713 214.063 882.204 214.063C883.616 214.063 884.675 214.299 885.381 214.77C886.166 215.24 886.676 215.907 886.911 216.77C887.225 217.555 887.382 218.457 887.382 219.477V290.795C887.382 291.815 887.186 292.756 886.793 293.619C886.479 294.404 885.891 295.032 885.028 295.502C884.243 295.973 883.106 296.209 881.615 296.209C880.36 296.209 879.301 296.052 878.438 295.738C877.653 295.424 876.908 294.836 876.202 293.973L831.716 231.834V290.795C831.716 291.815 831.559 292.756 831.245 293.619C830.931 294.404 830.382 295.032 829.598 295.502C828.813 295.973 827.675 296.209 826.185 296.209ZM931.044 296.797C926.337 296.797 922.139 296.012 918.452 294.443C914.764 292.874 911.626 290.756 909.037 288.088C906.526 285.342 904.604 282.204 903.27 278.673C901.937 275.143 901.27 271.338 901.27 267.258C901.27 261.844 902.525 257.019 905.036 252.782C907.546 248.546 910.998 245.211 915.392 242.779C919.864 240.268 924.964 239.013 930.691 239.013C934.614 239.013 938.106 239.641 941.165 240.896C944.304 242.073 946.971 243.681 949.168 245.721C951.365 247.761 953.052 250.036 954.229 252.547C955.405 255.058 955.994 257.568 955.994 260.079C955.994 264.08 955.052 266.905 953.169 268.552C951.286 270.121 948.972 270.906 946.226 270.906H912.215C912.136 274.358 913.038 277.34 914.921 279.85C916.883 282.282 919.315 284.165 922.218 285.499C925.199 286.833 928.181 287.5 931.162 287.5C933.359 287.5 935.242 287.382 936.811 287.147C938.38 286.911 939.753 286.598 940.93 286.205C942.107 285.813 943.127 285.421 943.99 285.028C944.853 284.636 945.598 284.244 946.226 283.852C946.932 283.459 947.599 283.185 948.227 283.028C948.933 282.871 949.6 282.949 950.227 283.263C950.933 283.498 951.483 284.008 951.875 284.793C952.346 285.421 952.659 286.009 952.816 286.558C952.973 287.108 953.052 287.696 953.052 288.324C953.052 289.422 952.11 290.638 950.227 291.972C948.344 293.306 945.716 294.443 942.342 295.385C939.047 296.326 935.281 296.797 931.044 296.797ZM912.215 263.962H941.754C943.245 263.962 944.343 263.766 945.049 263.374C945.834 262.982 946.226 261.923 946.226 260.197C946.226 258 945.559 256.038 944.225 254.312C942.891 252.508 941.048 251.056 938.694 249.958C936.419 248.859 933.79 248.31 930.809 248.31C927.357 248.31 924.179 249.016 921.276 250.429C918.452 251.762 916.216 253.606 914.568 255.96C912.921 258.314 912.136 260.981 912.215 263.962ZM990.363 296.326C986.911 296.326 983.694 295.699 980.713 294.443C977.81 293.188 975.26 291.423 973.063 289.147C970.866 286.872 969.14 284.126 967.885 280.909C966.708 277.693 966.12 274.044 966.12 269.965V244.427C966.12 243.328 966.237 242.387 966.473 241.602C966.708 240.817 967.179 240.229 967.885 239.837C968.669 239.366 969.807 239.131 971.298 239.131C972.788 239.131 973.887 239.366 974.593 239.837C975.378 240.307 975.888 240.935 976.123 241.72C976.358 242.504 976.476 243.446 976.476 244.544V270.082C976.476 273.299 977.025 276.163 978.124 278.673C979.222 281.105 980.87 282.988 983.066 284.322C985.342 285.656 988.088 286.323 991.304 286.323C994.6 286.323 997.424 285.656 999.778 284.322C1002.21 282.988 1004.05 281.105 1005.31 278.673C1006.64 276.163 1007.31 273.299 1007.31 270.082V244.427C1007.31 243.328 1007.43 242.387 1007.66 241.602C1007.9 240.817 1008.37 240.229 1009.08 239.837C1009.86 239.366 1011 239.131 1012.49 239.131C1013.98 239.131 1015.08 239.366 1015.78 239.837C1016.57 240.307 1017.04 240.935 1017.2 241.72C1017.43 242.504 1017.55 243.446 1017.55 244.544V291.266C1017.55 292.207 1017.43 293.07 1017.2 293.855C1017.04 294.561 1016.57 295.11 1015.78 295.502C1015.08 295.895 1013.98 296.091 1012.49 296.091C1011.39 296.091 1010.49 295.973 1009.78 295.738C1009.15 295.502 1008.68 295.189 1008.37 294.796C1008.06 294.404 1007.82 293.973 1007.66 293.502C1007.58 292.953 1007.55 292.403 1007.55 291.854L1008.02 286.794C1007.23 287.735 1006.29 288.755 1005.19 289.854C1004.09 290.952 1002.8 292.011 1001.31 293.031C999.896 293.973 998.287 294.757 996.483 295.385C994.678 296.012 992.638 296.326 990.363 296.326ZM1036.85 296.209C1035.35 296.209 1034.22 295.973 1033.43 295.502C1032.73 295.11 1032.26 294.522 1032.02 293.737C1031.86 292.874 1031.78 291.893 1031.78 290.795V244.427C1031.78 243.25 1031.9 242.269 1032.14 241.484C1032.37 240.7 1032.84 240.151 1033.55 239.837C1034.26 239.444 1035.39 239.248 1036.96 239.248C1038.38 239.248 1039.43 239.444 1040.14 239.837C1040.93 240.151 1041.44 240.661 1041.67 241.367C1041.98 241.994 1042.14 242.74 1042.14 243.603L1041.67 247.133C1042.22 246.113 1042.85 245.093 1043.55 244.073C1044.34 243.054 1045.28 242.151 1046.38 241.367C1047.55 240.504 1048.93 239.798 1050.5 239.248C1052.14 238.699 1054.15 238.425 1056.5 238.425C1057.68 238.425 1058.77 238.542 1059.79 238.778C1060.89 238.934 1061.91 239.209 1062.85 239.601C1063.87 239.994 1064.74 240.464 1065.44 241.014C1066.15 241.484 1066.7 242.034 1067.09 242.661C1067.56 243.21 1067.8 243.877 1067.8 244.662C1067.8 246.388 1067.25 247.879 1066.15 249.134C1065.05 250.311 1063.91 250.899 1062.74 250.899C1061.72 250.899 1060.97 250.782 1060.5 250.546C1060.03 250.232 1059.56 249.919 1059.09 249.605C1058.7 249.291 1058.11 249.016 1057.32 248.781C1056.54 248.467 1055.28 248.31 1053.56 248.31C1052.38 248.31 1051.12 248.546 1049.79 249.016C1048.54 249.487 1047.32 250.193 1046.14 251.135C1044.97 251.998 1043.99 253.135 1043.2 254.548C1042.49 255.96 1042.14 257.607 1042.14 259.49V291.03C1042.14 292.129 1042.02 293.07 1041.79 293.855C1041.55 294.639 1041.04 295.228 1040.26 295.62C1039.55 296.012 1038.41 296.209 1036.85 296.209ZM1103.53 296.915C1099.68 296.915 1095.99 296.169 1092.46 294.679C1089.01 293.188 1085.91 291.148 1083.17 288.559C1080.42 285.891 1078.26 282.792 1076.69 279.262C1075.13 275.731 1074.34 271.887 1074.34 267.728C1074.34 263.649 1075.09 259.883 1076.58 256.431C1078.07 252.9 1080.15 249.801 1082.81 247.133C1085.48 244.466 1088.54 242.387 1091.99 240.896C1095.52 239.327 1099.29 238.542 1103.29 238.542C1108.71 238.542 1113.57 239.837 1117.88 242.426C1122.28 244.937 1125.77 248.389 1128.36 252.782C1130.95 257.176 1132.24 262.119 1132.24 267.611C1132.24 271.926 1131.46 275.888 1129.89 279.497C1128.32 283.028 1126.2 286.088 1123.53 288.677C1120.87 291.266 1117.81 293.306 1114.35 294.796C1110.9 296.209 1107.29 296.915 1103.53 296.915ZM1103.29 286.676C1106.59 286.676 1109.65 285.852 1112.47 284.205C1115.3 282.557 1117.57 280.282 1119.3 277.379C1121.02 274.476 1121.89 271.181 1121.89 267.493C1121.89 263.806 1121.06 260.55 1119.41 257.725C1117.85 254.901 1115.65 252.704 1112.82 251.135C1110 249.566 1106.78 248.781 1103.17 248.781C1099.72 248.781 1096.58 249.605 1093.76 251.252C1091.01 252.9 1088.78 255.136 1087.05 257.96C1085.4 260.785 1084.58 264.002 1084.58 267.611C1084.58 271.377 1085.44 274.711 1087.17 277.614C1088.89 280.439 1091.17 282.675 1093.99 284.322C1096.9 285.891 1100 286.676 1103.29 286.676ZM1168.2 296.209C1164.67 296.209 1161.3 295.502 1158.08 294.09C1154.87 292.678 1152.04 290.677 1149.61 288.088C1147.26 285.499 1145.37 282.479 1143.96 279.026C1142.63 275.496 1141.96 271.651 1141.96 267.493C1141.96 263.413 1142.63 259.647 1143.96 256.195C1145.37 252.743 1147.26 249.762 1149.61 247.251C1152.04 244.662 1154.87 242.661 1158.08 241.249C1161.3 239.837 1164.67 239.131 1168.2 239.131C1172.05 239.131 1175.5 239.837 1178.56 241.249C1181.7 242.661 1184.37 244.662 1186.56 247.251C1188.84 249.762 1190.56 252.782 1191.74 256.313C1192.92 259.765 1193.51 263.531 1193.51 267.611C1193.58 271.769 1193 275.574 1191.74 279.026C1190.56 282.479 1188.88 285.499 1186.68 288.088C1184.48 290.677 1181.82 292.678 1178.68 294.09C1175.62 295.502 1172.13 296.209 1168.2 296.209ZM1169.73 286.205C1173.03 286.205 1175.97 285.421 1178.56 283.852C1181.23 282.282 1183.31 280.125 1184.8 277.379C1186.37 274.554 1187.15 271.338 1187.15 267.728C1187.15 264.041 1186.37 260.824 1184.8 258.078C1183.31 255.254 1181.23 253.057 1178.56 251.488C1175.97 249.919 1173.03 249.134 1169.73 249.134C1166.44 249.134 1163.46 249.919 1160.79 251.488C1158.12 253.057 1156 255.254 1154.43 258.078C1152.94 260.824 1152.2 264.041 1152.2 267.728C1152.2 271.338 1152.94 274.554 1154.43 277.379C1156 280.125 1158.12 282.282 1160.79 283.852C1163.54 285.421 1166.52 286.205 1169.73 286.205ZM1192.8 296.209C1191.07 296.209 1189.82 295.895 1189.03 295.267C1188.25 294.639 1187.78 293.58 1187.62 292.09V218.418C1187.62 217.241 1187.7 216.26 1187.86 215.476C1188.09 214.691 1188.56 214.103 1189.27 213.71C1190.05 213.24 1191.19 213.004 1192.68 213.004C1194.17 213.004 1195.27 213.24 1195.98 213.71C1196.76 214.103 1197.27 214.691 1197.51 215.476C1197.74 216.26 1197.86 217.202 1197.86 218.3V290.795C1197.86 291.893 1197.74 292.874 1197.51 293.737C1197.27 294.522 1196.8 295.11 1196.1 295.502C1195.39 295.973 1194.29 296.209 1192.8 296.209ZM1218.33 296.209C1216.84 296.209 1215.7 295.973 1214.92 295.502C1214.21 295.11 1213.74 294.522 1213.51 293.737C1213.27 292.953 1213.15 292.011 1213.15 290.913V244.427C1213.15 243.328 1213.27 242.387 1213.51 241.602C1213.74 240.817 1214.21 240.229 1214.92 239.837C1215.7 239.444 1216.88 239.248 1218.45 239.248C1219.94 239.248 1221.04 239.484 1221.74 239.954C1222.45 240.347 1222.92 240.935 1223.16 241.72C1223.39 242.504 1223.51 243.485 1223.51 244.662V291.03C1223.51 292.129 1223.39 293.07 1223.16 293.855C1222.92 294.639 1222.41 295.228 1221.63 295.62C1220.92 296.012 1219.82 296.209 1218.33 296.209ZM1218.33 225.126C1216.6 225.126 1215.31 224.891 1214.45 224.42C1213.58 223.871 1213 223.125 1212.68 222.184C1212.45 221.242 1212.33 220.144 1212.33 218.889C1212.33 217.633 1212.49 216.574 1212.8 215.711C1213.11 214.77 1213.7 214.103 1214.57 213.71C1215.43 213.24 1216.72 213.004 1218.45 213.004C1220.1 213.004 1221.35 213.24 1222.21 213.71C1223.08 214.181 1223.63 214.887 1223.86 215.829C1224.18 216.77 1224.33 217.869 1224.33 219.124C1224.33 220.379 1224.18 221.478 1223.86 222.419C1223.63 223.282 1223.08 223.949 1222.21 224.42C1221.35 224.891 1220.06 225.126 1218.33 225.126ZM1263.01 296.444C1261.67 296.444 1260.58 296.248 1259.71 295.856C1258.93 295.463 1258.26 294.757 1257.71 293.737L1235.94 246.31C1235.08 244.427 1234.88 243.014 1235.35 242.073C1235.82 241.053 1236.92 240.111 1238.65 239.248C1240.22 238.464 1241.55 238.228 1242.65 238.542C1243.75 238.778 1244.69 239.798 1245.47 241.602L1263.01 283.381L1280.19 242.779C1281.05 240.974 1282 239.68 1283.02 238.895C1284.04 238.111 1285.64 238.268 1287.84 239.366C1289.96 240.386 1291.02 241.563 1291.02 242.897C1291.02 244.152 1290.66 245.525 1289.96 247.016L1268.3 293.619C1267.91 294.561 1267.28 295.267 1266.42 295.738C1265.56 296.209 1264.42 296.444 1263.01 296.444ZM1325.36 296.797C1320.66 296.797 1316.46 296.012 1312.77 294.443C1309.08 292.874 1305.94 290.756 1303.36 288.088C1300.85 285.342 1298.92 282.204 1297.59 278.673C1296.26 275.143 1295.59 271.338 1295.59 267.258C1295.59 261.844 1296.84 257.019 1299.35 252.782C1301.87 248.546 1305.32 245.211 1309.71 242.779C1314.18 240.268 1319.28 239.013 1325.01 239.013C1328.93 239.013 1332.42 239.641 1335.48 240.896C1338.62 242.073 1341.29 243.681 1343.49 245.721C1345.68 247.761 1347.37 250.036 1348.55 252.547C1349.72 255.058 1350.31 257.568 1350.31 260.079C1350.31 264.08 1349.37 266.905 1347.49 268.552C1345.61 270.121 1343.29 270.906 1340.54 270.906H1306.53C1306.45 274.358 1307.36 277.34 1309.24 279.85C1311.2 282.282 1313.63 284.165 1316.54 285.499C1319.52 286.833 1322.5 287.5 1325.48 287.5C1327.68 287.5 1329.56 287.382 1331.13 287.147C1332.7 286.911 1334.07 286.598 1335.25 286.205C1336.43 285.813 1337.45 285.421 1338.31 285.028C1339.17 284.636 1339.92 284.244 1340.54 283.852C1341.25 283.459 1341.92 283.185 1342.55 283.028C1343.25 282.871 1343.92 282.949 1344.55 283.263C1345.25 283.498 1345.8 284.008 1346.19 284.793C1346.66 285.421 1346.98 286.009 1347.14 286.558C1347.29 287.108 1347.37 287.696 1347.37 288.324C1347.37 289.422 1346.43 290.638 1344.55 291.972C1342.66 293.306 1340.03 294.443 1336.66 295.385C1333.37 296.326 1329.6 296.797 1325.36 296.797ZM1306.53 263.962H1336.07C1337.56 263.962 1338.66 263.766 1339.37 263.374C1340.15 262.982 1340.54 261.923 1340.54 260.197C1340.54 258 1339.88 256.038 1338.54 254.312C1337.21 252.508 1335.37 251.056 1333.01 249.958C1330.74 248.859 1328.11 248.31 1325.13 248.31C1321.68 248.31 1318.5 249.016 1315.6 250.429C1312.77 251.762 1310.53 253.606 1308.89 255.96C1307.24 258.314 1306.45 260.981 1306.53 263.962ZM1367.26 296.209C1365.77 296.209 1364.64 295.973 1363.85 295.502C1363.15 295.11 1362.67 294.522 1362.44 293.737C1362.28 292.874 1362.2 291.893 1362.2 290.795V244.427C1362.2 243.25 1362.32 242.269 1362.56 241.484C1362.79 240.7 1363.26 240.151 1363.97 239.837C1364.68 239.444 1365.81 239.248 1367.38 239.248C1368.79 239.248 1369.85 239.444 1370.56 239.837C1371.34 240.151 1371.85 240.661 1372.09 241.367C1372.4 241.994 1372.56 242.74 1372.56 243.603L1372.09 247.133C1372.64 246.113 1373.27 245.093 1373.97 244.073C1374.76 243.054 1375.7 242.151 1376.8 241.367C1377.97 240.504 1379.35 239.798 1380.92 239.248C1382.56 238.699 1384.56 238.425 1386.92 238.425C1388.09 238.425 1389.19 238.542 1390.21 238.778C1391.31 238.934 1392.33 239.209 1393.27 239.601C1394.29 239.994 1395.16 240.464 1395.86 241.014C1396.57 241.484 1397.12 242.034 1397.51 242.661C1397.98 243.21 1398.22 243.877 1398.22 244.662C1398.22 246.388 1397.67 247.879 1396.57 249.134C1395.47 250.311 1394.33 250.899 1393.16 250.899C1392.14 250.899 1391.39 250.782 1390.92 250.546C1390.45 250.232 1389.98 249.919 1389.51 249.605C1389.11 249.291 1388.53 249.016 1387.74 248.781C1386.96 248.467 1385.7 248.31 1383.98 248.31C1382.8 248.31 1381.54 248.546 1380.21 249.016C1378.95 249.487 1377.74 250.193 1376.56 251.135C1375.38 251.998 1374.4 253.135 1373.62 254.548C1372.91 255.96 1372.56 257.607 1372.56 259.49V291.03C1372.56 292.129 1372.44 293.07 1372.21 293.855C1371.97 294.639 1371.46 295.228 1370.68 295.62C1369.97 296.012 1368.83 296.209 1367.26 296.209ZM1425.63 296.797C1423.74 296.797 1421.78 296.601 1419.74 296.209C1417.7 295.816 1415.7 295.267 1413.74 294.561C1411.86 293.776 1410.17 292.874 1408.68 291.854C1407.27 290.834 1406.21 289.697 1405.5 288.441C1405.11 287.657 1404.87 286.951 1404.8 286.323C1404.72 285.617 1404.83 284.95 1405.15 284.322C1405.46 283.695 1405.93 283.067 1406.56 282.439C1407.35 281.498 1408.13 281.066 1408.91 281.145C1409.7 281.145 1410.68 281.655 1411.86 282.675C1412.72 283.224 1413.74 283.852 1414.92 284.558C1416.09 285.185 1417.31 285.774 1418.56 286.323C1419.82 286.794 1421.08 287.225 1422.33 287.617C1423.66 287.931 1424.96 288.088 1426.21 288.088C1429.82 288.088 1432.73 287.421 1434.92 286.088C1437.12 284.675 1438.22 282.832 1438.22 280.556C1438.22 279.223 1437.94 278.085 1437.39 277.143C1436.85 276.202 1436.1 275.417 1435.16 274.79C1434.22 274.084 1433.16 273.495 1431.98 273.024C1430.8 272.554 1429.47 272.122 1427.98 271.73C1426.57 271.259 1425.15 270.828 1423.74 270.435C1421.62 269.886 1419.55 269.258 1417.51 268.552C1415.47 267.846 1413.62 266.944 1411.97 265.845C1410.33 264.669 1408.99 263.217 1407.97 261.491C1406.95 259.687 1406.44 257.411 1406.44 254.665C1406.44 251.448 1407.27 248.663 1408.91 246.31C1410.56 243.956 1412.88 242.151 1415.86 240.896C1418.84 239.562 1422.33 238.895 1426.33 238.895C1428.06 238.895 1429.67 239.013 1431.16 239.248C1432.65 239.484 1434.06 239.876 1435.39 240.425C1436.81 240.896 1438.14 241.484 1439.4 242.19C1440.65 242.818 1441.87 243.603 1443.04 244.544C1444.46 245.486 1445.2 246.506 1445.28 247.604C1445.36 248.702 1444.93 249.84 1443.98 251.017C1443.28 252.037 1442.49 252.704 1441.63 253.018C1440.77 253.253 1439.9 253.018 1439.04 252.312C1437.79 251.37 1436.45 250.546 1435.04 249.84C1433.63 249.134 1432.18 248.546 1430.69 248.075C1429.2 247.604 1427.67 247.369 1426.1 247.369C1424.14 247.369 1422.37 247.683 1420.8 248.31C1419.31 248.859 1418.13 249.722 1417.27 250.899C1416.49 251.998 1416.09 253.253 1416.09 254.665C1416.09 255.921 1416.41 256.941 1417.03 257.725C1417.74 258.51 1418.6 259.177 1419.62 259.726C1420.72 260.275 1421.98 260.785 1423.39 261.256C1424.88 261.648 1426.41 262.04 1427.98 262.433C1430.25 262.982 1432.57 263.649 1434.92 264.433C1437.36 265.139 1439.51 266.12 1441.4 267.375C1443.36 268.552 1444.93 270.161 1446.1 272.201C1447.36 274.162 1447.99 276.79 1447.99 280.086C1447.99 285.264 1445.95 289.344 1441.87 292.325C1437.79 295.306 1432.37 296.797 1425.63 296.797ZM1466.46 296.209C1464.97 296.209 1463.83 295.973 1463.05 295.502C1462.34 295.11 1461.87 294.522 1461.64 293.737C1461.4 292.953 1461.28 292.011 1461.28 290.913V244.427C1461.28 243.328 1461.4 242.387 1461.64 241.602C1461.87 240.817 1462.34 240.229 1463.05 239.837C1463.83 239.444 1465.01 239.248 1466.58 239.248C1468.07 239.248 1469.17 239.484 1469.87 239.954C1470.58 240.347 1471.05 240.935 1471.29 241.72C1471.52 242.504 1471.64 243.485 1471.64 244.662V291.03C1471.64 292.129 1471.52 293.07 1471.29 293.855C1471.05 294.639 1470.54 295.228 1469.76 295.62C1469.05 296.012 1467.95 296.209 1466.46 296.209ZM1466.46 225.126C1464.74 225.126 1463.44 224.891 1462.58 224.42C1461.71 223.871 1461.13 223.125 1460.81 222.184C1460.58 221.242 1460.46 220.144 1460.46 218.889C1460.46 217.633 1460.62 216.574 1460.93 215.711C1461.24 214.77 1461.83 214.103 1462.7 213.71C1463.56 213.24 1464.85 213.004 1466.58 213.004C1468.23 213.004 1469.48 213.24 1470.34 213.71C1471.21 214.181 1471.76 214.887 1471.99 215.829C1472.31 216.77 1472.46 217.869 1472.46 219.124C1472.46 220.379 1472.31 221.478 1471.99 222.419C1471.76 223.282 1471.21 223.949 1470.34 224.42C1469.48 224.891 1468.19 225.126 1466.46 225.126ZM1511.61 296.209C1508.08 296.209 1504.71 295.502 1501.49 294.09C1498.27 292.678 1495.45 290.677 1493.02 288.088C1490.66 285.499 1488.78 282.479 1487.37 279.026C1486.03 275.496 1485.37 271.651 1485.37 267.493C1485.37 263.413 1486.03 259.647 1487.37 256.195C1488.78 252.743 1490.66 249.762 1493.02 247.251C1495.45 244.662 1498.27 242.661 1501.49 241.249C1504.71 239.837 1508.08 239.131 1511.61 239.131C1515.45 239.131 1518.91 239.837 1521.97 241.249C1525.1 242.661 1527.77 244.662 1529.97 247.251C1532.24 249.762 1533.97 252.782 1535.15 256.313C1536.32 259.765 1536.91 263.531 1536.91 267.611C1536.99 271.769 1536.4 275.574 1535.15 279.026C1533.97 282.479 1532.28 285.499 1530.09 288.088C1527.89 290.677 1525.22 292.678 1522.08 294.09C1519.02 295.502 1515.53 296.209 1511.61 296.209ZM1513.14 286.205C1516.43 286.205 1519.38 285.421 1521.97 283.852C1524.63 282.282 1526.71 280.125 1528.2 277.379C1529.77 274.554 1530.56 271.338 1530.56 267.728C1530.56 264.041 1529.77 260.824 1528.2 258.078C1526.71 255.254 1524.63 253.057 1521.97 251.488C1519.38 249.919 1516.43 249.134 1513.14 249.134C1509.84 249.134 1506.86 249.919 1504.2 251.488C1501.53 253.057 1499.41 255.254 1497.84 258.078C1496.35 260.824 1495.6 264.041 1495.6 267.728C1495.6 271.338 1496.35 274.554 1497.84 277.379C1499.41 280.125 1501.53 282.282 1504.2 283.852C1506.94 285.421 1509.92 286.205 1513.14 286.205ZM1536.21 296.209C1534.48 296.209 1533.22 295.895 1532.44 295.267C1531.66 294.639 1531.18 293.58 1531.03 292.09V218.418C1531.03 217.241 1531.11 216.26 1531.26 215.476C1531.5 214.691 1531.97 214.103 1532.68 213.71C1533.46 213.24 1534.6 213.004 1536.09 213.004C1537.58 213.004 1538.68 213.24 1539.38 213.71C1540.17 214.103 1540.68 214.691 1540.91 215.476C1541.15 216.26 1541.27 217.202 1541.27 218.3V290.795C1541.27 291.893 1541.15 292.874 1540.91 293.737C1540.68 294.522 1540.21 295.11 1539.5 295.502C1538.8 295.973 1537.7 296.209 1536.21 296.209ZM1602.73 296.091C1601.01 296.091 1599.75 295.738 1598.97 295.032C1598.26 294.326 1597.83 293.227 1597.67 291.737L1598.14 285.852C1597.36 287.108 1596.14 288.559 1594.49 290.207C1592.85 291.776 1590.69 293.188 1588.02 294.443C1585.35 295.62 1582.1 296.209 1578.25 296.209C1574.49 296.209 1570.96 295.463 1567.66 293.973C1564.45 292.482 1561.58 290.403 1559.07 287.735C1556.64 285.068 1554.72 282.008 1553.3 278.556C1551.97 275.103 1551.3 271.416 1551.3 267.493C1551.3 263.649 1551.97 260.04 1553.3 256.666C1554.72 253.214 1556.68 250.193 1559.19 247.604C1561.7 245.015 1564.56 242.975 1567.78 241.484C1571.08 239.994 1574.57 239.248 1578.25 239.248C1581.71 239.248 1584.65 239.719 1587.08 240.661C1589.51 241.524 1591.59 242.7 1593.32 244.191C1595.12 245.603 1596.69 247.212 1598.03 249.016L1597.79 244.073C1597.71 242.347 1598.06 241.131 1598.85 240.425C1599.71 239.641 1601.05 239.248 1602.85 239.248C1604.34 239.248 1605.4 239.484 1606.03 239.954C1606.73 240.425 1607.2 241.092 1607.44 241.955C1607.68 242.818 1607.79 243.877 1607.79 245.133V290.56C1607.79 291.658 1607.68 292.639 1607.44 293.502C1607.2 294.365 1606.73 294.993 1606.03 295.385C1605.32 295.856 1604.22 296.091 1602.73 296.091ZM1580.02 286.323C1583.16 286.323 1586.02 285.499 1588.61 283.852C1591.28 282.204 1593.36 280.007 1594.85 277.261C1596.42 274.437 1597.2 271.22 1597.2 267.611C1597.2 263.923 1596.38 260.706 1594.73 257.96C1593.16 255.136 1591.04 252.939 1588.38 251.37C1585.79 249.722 1582.92 248.899 1579.78 248.899C1576.1 248.899 1572.88 249.762 1570.13 251.488C1567.47 253.135 1565.35 255.371 1563.78 258.196C1562.21 261.02 1561.42 264.237 1561.42 267.846C1561.42 271.377 1562.21 274.554 1563.78 277.379C1565.35 280.125 1567.51 282.322 1570.25 283.969C1573.08 285.538 1576.33 286.323 1580.02 286.323ZM1646.42 296.209C1642.89 296.209 1639.52 295.502 1636.3 294.09C1633.08 292.678 1630.26 290.677 1627.83 288.088C1625.47 285.499 1623.59 282.479 1622.18 279.026C1620.84 275.496 1620.18 271.651 1620.18 267.493C1620.18 263.413 1620.84 259.647 1622.18 256.195C1623.59 252.743 1625.47 249.762 1627.83 247.251C1630.26 244.662 1633.08 242.661 1636.3 241.249C1639.52 239.837 1642.89 239.131 1646.42 239.131C1650.26 239.131 1653.72 239.837 1656.78 241.249C1659.92 242.661 1662.58 244.662 1664.78 247.251C1667.05 249.762 1668.78 252.782 1669.96 256.313C1671.13 259.765 1671.72 263.531 1671.72 267.611C1671.8 271.769 1671.21 275.574 1669.96 279.026C1668.78 282.479 1667.09 285.499 1664.9 288.088C1662.7 290.677 1660.03 292.678 1656.89 294.09C1653.83 295.502 1650.34 296.209 1646.42 296.209ZM1647.95 286.205C1651.25 286.205 1654.19 285.421 1656.78 283.852C1659.44 282.282 1661.52 280.125 1663.01 277.379C1664.58 274.554 1665.37 271.338 1665.37 267.728C1665.37 264.041 1664.58 260.824 1663.01 258.078C1661.52 255.254 1659.44 253.057 1656.78 251.488C1654.19 249.919 1651.25 249.134 1647.95 249.134C1644.66 249.134 1641.67 249.919 1639.01 251.488C1636.34 253.057 1634.22 255.254 1632.65 258.078C1631.16 260.824 1630.41 264.041 1630.41 267.728C1630.41 271.338 1631.16 274.554 1632.65 277.379C1634.22 280.125 1636.34 282.282 1639.01 283.852C1641.75 285.421 1644.73 286.205 1647.95 286.205ZM1671.02 296.209C1669.29 296.209 1668.04 295.895 1667.25 295.267C1666.47 294.639 1666 293.58 1665.84 292.09V218.418C1665.84 217.241 1665.92 216.26 1666.07 215.476C1666.31 214.691 1666.78 214.103 1667.49 213.71C1668.27 213.24 1669.41 213.004 1670.9 213.004C1672.39 213.004 1673.49 213.24 1674.19 213.71C1674.98 214.103 1675.49 214.691 1675.72 215.476C1675.96 216.26 1676.08 217.202 1676.08 218.3V290.795C1676.08 291.893 1675.96 292.874 1675.72 293.737C1675.49 294.522 1675.02 295.11 1674.31 295.502C1673.61 295.973 1672.51 296.209 1671.02 296.209ZM827.715 420.209C826.146 420.209 824.969 419.973 824.184 419.502C823.478 419.11 823.007 418.522 822.772 417.737C822.536 416.874 822.419 415.893 822.419 414.795V343.359C822.419 341.319 822.811 339.946 823.596 339.24C824.459 338.456 825.949 338.063 828.068 338.063H875.378C876.476 338.063 877.418 338.181 878.202 338.416C878.987 338.652 879.575 339.162 879.967 339.946C880.36 340.731 880.556 341.908 880.556 343.477C880.556 345.046 880.321 346.223 879.85 347.008C879.458 347.714 878.869 348.184 878.085 348.42C877.3 348.655 876.358 348.773 875.26 348.773H833.011V373.134H862.432C863.531 373.134 864.433 373.252 865.139 373.487C865.924 373.722 866.512 374.193 866.904 374.899C867.297 375.605 867.493 376.704 867.493 378.195C867.493 379.607 867.297 380.666 866.904 381.372C866.512 382.078 865.924 382.549 865.139 382.784C864.354 382.941 863.374 383.02 862.197 383.02H833.011V409.617H875.378C876.476 409.617 877.418 409.735 878.202 409.97C878.987 410.205 879.575 410.715 879.967 411.5C880.36 412.206 880.556 413.344 880.556 414.913C880.556 416.482 880.321 417.659 879.85 418.443C879.458 419.149 878.869 419.62 878.085 419.856C877.3 420.091 876.358 420.209 875.26 420.209H827.715ZM913.161 420.797C911.278 420.797 909.316 420.601 907.276 420.209C905.236 419.816 903.236 419.267 901.274 418.561C899.391 417.776 897.704 416.874 896.214 415.854C894.802 414.834 893.742 413.697 893.036 412.441C892.644 411.657 892.409 410.951 892.33 410.323C892.252 409.617 892.369 408.95 892.683 408.322C892.997 407.695 893.468 407.067 894.095 406.439C894.88 405.498 895.665 405.066 896.449 405.145C897.234 405.145 898.214 405.655 899.391 406.675C900.254 407.224 901.274 407.852 902.451 408.558C903.628 409.185 904.844 409.774 906.099 410.323C907.355 410.794 908.61 411.225 909.865 411.617C911.199 411.931 912.494 412.088 913.749 412.088C917.358 412.088 920.261 411.421 922.458 410.088C924.655 408.675 925.753 406.832 925.753 404.556C925.753 403.223 925.478 402.085 924.929 401.143C924.38 400.202 923.635 399.417 922.693 398.79C921.752 398.084 920.693 397.495 919.516 397.024C918.339 396.554 917.005 396.122 915.514 395.73C914.102 395.259 912.69 394.828 911.278 394.435C909.159 393.886 907.08 393.258 905.04 392.552C903 391.846 901.157 390.944 899.509 389.845C897.861 388.669 896.528 387.217 895.508 385.491C894.488 383.687 893.978 381.411 893.978 378.665C893.978 375.448 894.802 372.663 896.449 370.31C898.097 367.956 900.411 366.151 903.393 364.896C906.374 363.562 909.865 362.895 913.867 362.895C915.593 362.895 917.201 363.013 918.692 363.248C920.183 363.484 921.595 363.876 922.929 364.425C924.341 364.896 925.675 365.484 926.93 366.19C928.185 366.818 929.401 367.603 930.578 368.544C931.99 369.486 932.736 370.506 932.814 371.604C932.893 372.702 932.461 373.84 931.52 375.017C930.814 376.037 930.029 376.704 929.166 377.018C928.303 377.253 927.44 377.018 926.577 376.312C925.322 375.37 923.988 374.546 922.576 373.84C921.163 373.134 919.712 372.546 918.221 372.075C916.73 371.604 915.201 371.369 913.631 371.369C911.67 371.369 909.905 371.683 908.335 372.31C906.845 372.859 905.668 373.722 904.805 374.899C904.02 375.998 903.628 377.253 903.628 378.665C903.628 379.921 903.942 380.941 904.57 381.725C905.276 382.51 906.139 383.177 907.159 383.726C908.257 384.275 909.512 384.785 910.925 385.256C912.415 385.648 913.945 386.04 915.514 386.433C917.79 386.982 920.104 387.649 922.458 388.433C924.89 389.139 927.048 390.12 928.931 391.375C930.892 392.552 932.461 394.161 933.638 396.201C934.893 398.162 935.521 400.79 935.521 404.086C935.521 409.264 933.481 413.344 929.401 416.325C925.322 419.306 919.908 420.797 913.161 420.797ZM977.063 419.738C973.218 419.738 969.727 419.032 966.588 417.619C963.45 416.207 960.783 414.246 958.586 411.735C956.389 409.146 954.663 406.125 953.408 402.673C952.231 399.221 951.681 395.416 951.76 391.258C951.76 387.178 952.348 383.412 953.525 379.96C954.702 376.508 956.389 373.526 958.586 371.016C960.861 368.427 963.529 366.465 966.588 365.131C969.727 363.719 973.218 363.013 977.063 363.013C980.672 363.013 984.045 363.719 987.184 365.131C990.4 366.544 993.186 368.544 995.539 371.133C997.972 373.644 999.855 376.665 1001.19 380.195C1002.6 383.726 1003.31 387.531 1003.31 391.611C1003.31 395.691 1002.6 399.457 1001.19 402.909C999.855 406.361 997.972 409.342 995.539 411.853C993.186 414.364 990.4 416.325 987.184 417.737C984.045 419.071 980.672 419.738 977.063 419.738ZM952.584 443.393C951.093 443.393 949.955 443.157 949.171 442.687C948.465 442.294 947.955 441.706 947.641 440.921C947.406 440.137 947.288 439.195 947.288 438.097V368.544C947.288 367.446 947.406 366.504 947.641 365.72C947.876 364.935 948.347 364.347 949.053 363.954C949.838 363.484 950.975 363.248 952.466 363.248C954.192 363.248 955.447 363.523 956.232 364.072C957.095 364.621 957.605 365.602 957.762 367.014V437.979C957.84 439.078 957.762 440.019 957.527 440.804C957.291 441.667 956.781 442.294 955.997 442.687C955.291 443.157 954.153 443.393 952.584 443.393ZM975.533 410.088C978.828 410.088 981.809 409.303 984.477 407.734C987.144 406.086 989.224 403.85 990.714 401.026C992.283 398.201 993.068 394.984 993.068 391.375C993.068 387.688 992.283 384.471 990.714 381.725C989.224 378.979 987.144 376.861 984.477 375.37C981.888 373.801 978.906 373.016 975.533 373.016C972.237 373.016 969.256 373.801 966.588 375.37C963.999 376.939 961.92 379.097 960.351 381.843C958.86 384.589 958.115 387.766 958.115 391.375C958.115 394.984 958.86 398.201 960.351 401.026C961.92 403.85 963.999 406.086 966.588 407.734C969.256 409.303 972.237 410.088 975.533 410.088ZM1033.7 420.209C1031.18 420.209 1028.91 419.973 1026.87 419.502C1024.91 419.11 1023.18 418.443 1021.69 417.502C1020.2 416.56 1018.95 415.344 1017.93 413.854C1016.98 412.363 1016.28 410.558 1015.81 408.44C1015.41 406.322 1015.22 403.85 1015.22 401.026V342.182C1015.22 341.006 1015.3 340.025 1015.45 339.24C1015.69 338.456 1016.2 337.867 1016.98 337.475C1017.77 337.004 1018.87 336.769 1020.28 336.769C1021.85 336.769 1022.99 336.965 1023.69 337.357C1024.48 337.75 1024.99 338.338 1025.22 339.123C1025.46 339.907 1025.58 340.849 1025.58 341.947V400.908C1025.58 402.477 1025.73 403.85 1026.05 405.027C1026.36 406.125 1026.83 407.067 1027.46 407.852C1028.16 408.636 1029.03 409.185 1030.05 409.499C1031.07 409.813 1032.28 409.97 1033.7 409.97C1034.64 409.97 1035.42 410.088 1036.05 410.323C1036.76 410.558 1037.3 411.029 1037.7 411.735C1038.09 412.441 1038.29 413.54 1038.29 415.03C1038.29 416.6 1038.09 417.776 1037.7 418.561C1037.3 419.267 1036.76 419.699 1036.05 419.856C1035.42 420.091 1034.64 420.209 1033.7 420.209ZM1070.35 420.326C1066.9 420.326 1063.68 419.699 1060.7 418.443C1057.8 417.188 1055.25 415.423 1053.05 413.147C1050.86 410.872 1049.13 408.126 1047.87 404.909C1046.7 401.693 1046.11 398.044 1046.11 393.965V368.427C1046.11 367.328 1046.23 366.387 1046.46 365.602C1046.7 364.817 1047.17 364.229 1047.87 363.837C1048.66 363.366 1049.8 363.131 1051.29 363.131C1052.78 363.131 1053.88 363.366 1054.58 363.837C1055.37 364.307 1055.88 364.935 1056.11 365.72C1056.35 366.504 1056.47 367.446 1056.47 368.544V394.082C1056.47 397.299 1057.02 400.163 1058.11 402.673C1059.21 405.105 1060.86 406.988 1063.06 408.322C1065.33 409.656 1068.08 410.323 1071.29 410.323C1074.59 410.323 1077.41 409.656 1079.77 408.322C1082.2 406.988 1084.04 405.105 1085.3 402.673C1086.63 400.163 1087.3 397.299 1087.3 394.082V368.427C1087.3 367.328 1087.42 366.387 1087.65 365.602C1087.89 364.817 1088.36 364.229 1089.07 363.837C1089.85 363.366 1090.99 363.131 1092.48 363.131C1093.97 363.131 1095.07 363.366 1095.77 363.837C1096.56 364.307 1097.03 364.935 1097.19 365.72C1097.42 366.504 1097.54 367.446 1097.54 368.544V415.266C1097.54 416.207 1097.42 417.07 1097.19 417.855C1097.03 418.561 1096.56 419.11 1095.77 419.502C1095.07 419.895 1093.97 420.091 1092.48 420.091C1091.38 420.091 1090.48 419.973 1089.77 419.738C1089.14 419.502 1088.67 419.189 1088.36 418.796C1088.05 418.404 1087.81 417.973 1087.65 417.502C1087.57 416.953 1087.54 416.403 1087.54 415.854L1088.01 410.794C1087.22 411.735 1086.28 412.755 1085.18 413.854C1084.08 414.952 1082.79 416.011 1081.3 417.031C1079.89 417.973 1078.28 418.757 1076.47 419.385C1074.67 420.012 1072.63 420.326 1070.35 420.326ZM1135.67 443.275C1132.92 443.275 1130.29 442.961 1127.78 442.334C1125.27 441.706 1123.07 440.882 1121.19 439.862C1119.31 438.842 1117.82 437.744 1116.72 436.567C1115.62 435.39 1115.07 434.292 1115.07 433.272C1115.07 432.487 1115.19 431.82 1115.42 431.271C1115.66 430.8 1116.01 430.29 1116.48 429.741C1117.27 428.957 1117.89 428.407 1118.37 428.094C1118.84 427.78 1119.46 427.623 1120.25 427.623C1121.03 427.623 1121.82 427.937 1122.6 428.564C1123.39 429.27 1124.33 430.016 1125.43 430.8C1126.6 431.663 1128.02 432.409 1129.66 433.036C1131.39 433.743 1133.51 434.096 1136.02 434.096C1138.61 434.096 1140.92 433.703 1142.96 432.919C1145 432.134 1146.77 430.957 1148.26 429.388C1149.75 427.819 1150.89 425.897 1151.67 423.622C1152.46 421.425 1152.85 418.914 1152.85 416.09L1152.61 367.132C1152.69 365.641 1153.12 364.582 1153.91 363.954C1154.77 363.327 1156.1 363.013 1157.91 363.013C1159.4 363.013 1160.46 363.248 1161.09 363.719C1161.79 364.111 1162.22 364.7 1162.38 365.484C1162.62 366.19 1162.73 367.093 1162.73 368.191V416.913C1162.73 421.072 1162.07 424.759 1160.73 427.976C1159.4 431.271 1157.52 434.056 1155.08 436.332C1152.65 438.607 1149.79 440.333 1146.49 441.51C1143.2 442.687 1139.59 443.275 1135.67 443.275ZM1135.31 418.914C1131.55 418.914 1128.06 418.247 1124.84 416.913C1121.7 415.501 1118.91 413.54 1116.48 411.029C1114.13 408.518 1112.29 405.576 1110.95 402.203C1109.7 398.829 1109.07 395.141 1109.07 391.14C1109.07 387.139 1109.7 383.451 1110.95 380.077C1112.29 376.704 1114.13 373.762 1116.48 371.251C1118.84 368.74 1121.58 366.818 1124.72 365.484C1127.94 364.072 1131.43 363.366 1135.19 363.366C1138.65 363.366 1141.79 364.033 1144.61 365.367C1147.43 366.7 1149.83 368.623 1151.79 371.133C1153.83 373.566 1155.36 376.468 1156.38 379.842C1157.4 383.216 1157.91 386.982 1157.91 391.14C1157.91 396.789 1157.01 401.693 1155.2 405.851C1153.4 410.009 1150.81 413.226 1147.43 415.501C1144.06 417.776 1140.02 418.914 1135.31 418.914ZM1135.9 409.264C1139.04 409.264 1141.86 408.479 1144.37 406.91C1146.88 405.341 1148.89 403.183 1150.38 400.437C1151.87 397.691 1152.61 394.514 1152.61 390.905C1152.61 387.374 1151.87 384.275 1150.38 381.607C1148.89 378.861 1146.85 376.743 1144.26 375.252C1141.75 373.762 1138.88 373.016 1135.67 373.016C1132.45 373.016 1129.58 373.762 1127.07 375.252C1124.56 376.743 1122.6 378.861 1121.19 381.607C1119.86 384.275 1119.19 387.413 1119.19 391.022C1119.19 394.631 1119.9 397.809 1121.31 400.555C1122.72 403.223 1124.68 405.341 1127.19 406.91C1129.7 408.479 1132.61 409.264 1135.9 409.264ZM1200.8 420.326C1197.34 420.326 1194.13 419.699 1191.15 418.443C1188.24 417.188 1185.69 415.423 1183.5 413.147C1181.3 410.872 1179.57 408.126 1178.32 404.909C1177.14 401.693 1176.55 398.044 1176.55 393.965V368.427C1176.55 367.328 1176.67 366.387 1176.91 365.602C1177.14 364.817 1177.61 364.229 1178.32 363.837C1179.1 363.366 1180.24 363.131 1181.73 363.131C1183.22 363.131 1184.32 363.366 1185.03 363.837C1185.81 364.307 1186.32 364.935 1186.56 365.72C1186.79 366.504 1186.91 367.446 1186.91 368.544V394.082C1186.91 397.299 1187.46 400.163 1188.56 402.673C1189.66 405.105 1191.3 406.988 1193.5 408.322C1195.78 409.656 1198.52 410.323 1201.74 410.323C1205.03 410.323 1207.86 409.656 1210.21 408.322C1212.64 406.988 1214.49 405.105 1215.74 402.673C1217.08 400.163 1217.74 397.299 1217.74 394.082V368.427C1217.74 367.328 1217.86 366.387 1218.1 365.602C1218.33 364.817 1218.8 364.229 1219.51 363.837C1220.29 363.366 1221.43 363.131 1222.92 363.131C1224.41 363.131 1225.51 363.366 1226.22 363.837C1227 364.307 1227.47 364.935 1227.63 365.72C1227.86 366.504 1227.98 367.446 1227.98 368.544V415.266C1227.98 416.207 1227.86 417.07 1227.63 417.855C1227.47 418.561 1227 419.11 1226.22 419.502C1225.51 419.895 1224.41 420.091 1222.92 420.091C1221.82 420.091 1220.92 419.973 1220.21 419.738C1219.59 419.502 1219.12 419.189 1218.8 418.796C1218.49 418.404 1218.25 417.973 1218.1 417.502C1218.02 416.953 1217.98 416.403 1217.98 415.854L1218.45 410.794C1217.67 411.735 1216.72 412.755 1215.63 413.854C1214.53 414.952 1213.23 416.011 1211.74 417.031C1210.33 417.973 1208.72 418.757 1206.92 419.385C1205.11 420.012 1203.07 420.326 1200.8 420.326ZM1268.93 420.797C1264.23 420.797 1260.03 420.012 1256.34 418.443C1252.65 416.874 1249.52 414.756 1246.93 412.088C1244.42 409.342 1242.49 406.204 1241.16 402.673C1239.83 399.143 1239.16 395.338 1239.16 391.258C1239.16 385.844 1240.41 381.019 1242.92 376.782C1245.44 372.546 1248.89 369.211 1253.28 366.779C1257.75 364.268 1262.85 363.013 1268.58 363.013C1272.5 363.013 1275.99 363.641 1279.05 364.896C1282.19 366.073 1284.86 367.681 1287.06 369.721C1289.25 371.761 1290.94 374.036 1292.12 376.547C1293.29 379.058 1293.88 381.568 1293.88 384.079C1293.88 388.08 1292.94 390.905 1291.06 392.552C1289.18 394.121 1286.86 394.906 1284.11 394.906H1250.1C1250.03 398.358 1250.93 401.34 1252.81 403.85C1254.77 406.282 1257.2 408.165 1260.11 409.499C1263.09 410.833 1266.07 411.5 1269.05 411.5C1271.25 411.5 1273.13 411.382 1274.7 411.147C1276.27 410.911 1277.64 410.598 1278.82 410.205C1280 409.813 1281.02 409.421 1281.88 409.028C1282.74 408.636 1283.49 408.244 1284.11 407.852C1284.82 407.459 1285.49 407.185 1286.12 407.028C1286.82 406.871 1287.49 406.949 1288.12 407.263C1288.82 407.498 1289.37 408.008 1289.76 408.793C1290.23 409.421 1290.55 410.009 1290.71 410.558C1290.86 411.108 1290.94 411.696 1290.94 412.324C1290.94 413.422 1290 414.638 1288.12 415.972C1286.23 417.306 1283.61 418.443 1280.23 419.385C1276.94 420.326 1273.17 420.797 1268.93 420.797ZM1250.1 387.962H1279.64C1281.13 387.962 1282.23 387.766 1282.94 387.374C1283.72 386.982 1284.11 385.923 1284.11 384.197C1284.11 382 1283.45 380.038 1282.11 378.312C1280.78 376.508 1278.94 375.056 1276.58 373.958C1274.31 372.859 1271.68 372.31 1268.7 372.31C1265.25 372.31 1262.07 373.016 1259.17 374.429C1256.34 375.762 1254.1 377.606 1252.46 379.96C1250.81 382.314 1250.03 384.981 1250.1 387.962ZM1324.6 420.797C1322.72 420.797 1320.76 420.601 1318.72 420.209C1316.68 419.816 1314.68 419.267 1312.72 418.561C1310.83 417.776 1309.15 416.874 1307.66 415.854C1306.24 414.834 1305.19 413.697 1304.48 412.441C1304.09 411.657 1303.85 410.951 1303.77 410.323C1303.69 409.617 1303.81 408.95 1304.13 408.322C1304.44 407.695 1304.91 407.067 1305.54 406.439C1306.32 405.498 1307.11 405.066 1307.89 405.145C1308.68 405.145 1309.66 405.655 1310.83 406.675C1311.7 407.224 1312.72 407.852 1313.89 408.558C1315.07 409.185 1316.29 409.774 1317.54 410.323C1318.8 410.794 1320.05 411.225 1321.31 411.617C1322.64 411.931 1323.94 412.088 1325.19 412.088C1328.8 412.088 1331.7 411.421 1333.9 410.088C1336.1 408.675 1337.2 406.832 1337.2 404.556C1337.2 403.223 1336.92 402.085 1336.37 401.143C1335.82 400.202 1335.08 399.417 1334.14 398.79C1333.19 398.084 1332.14 397.495 1330.96 397.024C1329.78 396.554 1328.45 396.122 1326.96 395.73C1325.55 395.259 1324.13 394.828 1322.72 394.435C1320.6 393.886 1318.52 393.258 1316.48 392.552C1314.44 391.846 1312.6 390.944 1310.95 389.845C1309.3 388.669 1307.97 387.217 1306.95 385.491C1305.93 383.687 1305.42 381.411 1305.42 378.665C1305.42 375.448 1306.24 372.663 1307.89 370.31C1309.54 367.956 1311.85 366.151 1314.84 364.896C1317.82 363.562 1321.31 362.895 1325.31 362.895C1327.04 362.895 1328.64 363.013 1330.14 363.248C1331.63 363.484 1333.04 363.876 1334.37 364.425C1335.78 364.896 1337.12 365.484 1338.37 366.19C1339.63 366.818 1340.84 367.603 1342.02 368.544C1343.43 369.486 1344.18 370.506 1344.26 371.604C1344.34 372.702 1343.9 373.84 1342.96 375.017C1342.26 376.037 1341.47 376.704 1340.61 377.018C1339.75 377.253 1338.88 377.018 1338.02 376.312C1336.76 375.37 1335.43 374.546 1334.02 373.84C1332.61 373.134 1331.15 372.546 1329.66 372.075C1328.17 371.604 1326.64 371.369 1325.07 371.369C1323.11 371.369 1321.35 371.683 1319.78 372.31C1318.29 372.859 1317.11 373.722 1316.25 374.899C1315.46 375.998 1315.07 377.253 1315.07 378.665C1315.07 379.921 1315.38 380.941 1316.01 381.725C1316.72 382.51 1317.58 383.177 1318.6 383.726C1319.7 384.275 1320.96 384.785 1322.37 385.256C1323.86 385.648 1325.39 386.04 1326.96 386.433C1329.23 386.982 1331.55 387.649 1333.9 388.433C1336.33 389.139 1338.49 390.12 1340.37 391.375C1342.34 392.552 1343.9 394.161 1345.08 396.201C1346.34 398.162 1346.96 400.79 1346.96 404.086C1346.96 409.264 1344.92 413.344 1340.84 416.325C1336.76 419.306 1331.35 420.797 1324.6 420.797Z" fill="#034AB1"/>
<path d="M1929.76 411.276C1929.76 433.898 1911.42 452.236 1888.8 452.236C1866.18 452.236 1847.84 433.898 1847.84 411.276C1847.84 388.654 1866.18 370.315 1888.8 370.315C1911.42 370.315 1929.76 388.654 1929.76 411.276Z" fill="url(#paint0_linear_17_11)"/>
<path d="M2081.06 446.385C2081.06 478.24 2055.24 504.064 2023.38 504.064C1991.53 504.064 1965.71 478.24 1965.71 446.385C1965.71 414.53 1991.53 388.706 2023.38 388.706C2055.24 388.706 2081.06 414.53 2081.06 446.385Z" fill="url(#paint1_linear_17_11)"/>
<path d="M2215.65 412.53C2215.65 440.922 2192.63 463.939 2164.24 463.939C2135.85 463.939 2112.83 440.922 2112.83 412.53C2112.83 384.137 2135.85 361.12 2164.24 361.12C2192.63 361.12 2215.65 384.137 2215.65 412.53Z" fill="url(#paint2_linear_17_11)"/>
<path d="M2324.32 342.73C2324.32 367.66 2304.11 387.87 2279.18 387.87C2254.25 387.87 2234.04 367.66 2234.04 342.73C2234.04 317.8 2254.25 297.59 2279.18 297.59C2304.11 297.59 2324.32 317.8 2324.32 342.73Z" fill="url(#paint3_linear_17_11)"/>
<path d="M2422.12 252.45C2422.12 275.072 2403.78 293.41 2381.16 293.41C2358.54 293.41 2340.2 275.072 2340.2 252.45C2340.2 229.828 2358.54 211.489 2381.16 211.489C2403.78 211.489 2422.12 229.828 2422.12 252.45Z" fill="url(#paint4_linear_17_11)"/>
<path d="M2511.57 161.334C2511.57 183.956 2493.23 202.294 2470.61 202.294C2447.98 202.294 2429.64 183.956 2429.64 161.334C2429.64 138.712 2447.98 120.373 2470.61 120.373C2493.23 120.373 2511.57 138.712 2511.57 161.334Z" fill="url(#paint5_linear_17_11)"/>
<path d="M2639.88 90.698C2639.88 118.167 2617.61 140.436 2590.14 140.436C2562.67 140.436 2540.4 118.167 2540.4 90.698C2540.4 63.2287 2562.67 40.9604 2590.14 40.9604C2617.61 40.9604 2639.88 63.2287 2639.88 90.698Z" fill="url(#paint6_linear_17_11)"/>
<path d="M2784.08 55.5891C2784.08 86.2901 2759.19 111.178 2728.49 111.178C2697.79 111.178 2672.9 86.2901 2672.9 55.5891C2672.9 24.8881 2697.79 0 2728.49 0C2759.19 0 2784.08 24.8881 2784.08 55.5891Z" fill="url(#paint7_linear_17_11)"/>
<path d="M2907.79 93.2058C2907.79 118.367 2887.4 138.764 2862.24 138.764C2837.08 138.764 2816.68 118.367 2816.68 93.2058C2816.68 68.0448 2837.08 47.6478 2862.24 47.6478C2887.4 47.6478 2907.79 68.0448 2907.79 93.2058Z" fill="url(#paint8_linear_17_11)"/>
<path d="M1918.89 113.687C1918.89 132.153 1903.92 147.124 1885.46 147.124C1866.99 147.124 1852.02 132.153 1852.02 113.687C1852.02 95.2198 1866.99 80.2495 1885.46 80.2495C1903.92 80.2495 1918.89 95.2198 1918.89 113.687Z" fill="url(#paint9_linear_17_11)"/>
<path d="M1989.95 63.531C1989.95 78.766 1977.6 91.1165 1962.36 91.1165C1947.13 91.1165 1934.78 78.766 1934.78 63.531C1934.78 48.2959 1947.13 35.9454 1962.36 35.9454C1977.6 35.9454 1989.95 48.2959 1989.95 63.531Z" fill="url(#paint10_linear_17_11)"/>
<path d="M2070.2 48.4843C2070.2 62.796 2058.6 74.398 2044.28 74.398C2029.97 74.398 2018.37 62.796 2018.37 48.4843C2018.37 34.1725 2029.97 22.5706 2044.28 22.5706C2058.6 22.5706 2070.2 34.1725 2070.2 48.4843Z" fill="url(#paint11_linear_17_11)"/>
<path d="M2144.59 51.41C2144.59 63.1826 2135.05 72.7261 2123.28 72.7261C2111.51 72.7261 2101.96 63.1826 2101.96 51.41C2101.96 39.6374 2111.51 30.0939 2123.28 30.0939C2135.05 30.0939 2144.59 39.6374 2144.59 51.41Z" fill="url(#paint12_linear_17_11)"/>
<path d="M2210.22 79.4136C2210.22 90.0319 2201.61 98.6399 2190.99 98.6399C2180.37 98.6399 2171.76 90.0319 2171.76 79.4136C2171.76 68.7952 2180.37 60.1872 2190.99 60.1872C2201.61 60.1872 2210.22 68.7952 2210.22 79.4136Z" fill="url(#paint13_linear_17_11)"/>
<path d="M2266.64 114.104C2266.64 124.492 2258.22 132.913 2247.83 132.913C2237.44 132.913 2229.02 124.492 2229.02 114.104C2229.02 103.717 2237.44 95.2962 2247.83 95.2962C2258.22 95.2962 2266.64 103.717 2266.64 114.104Z" fill="url(#paint14_linear_17_11)"/>
<path d="M2316.38 157.155C2316.38 166.85 2308.52 174.709 2298.82 174.709C2289.13 174.709 2281.27 166.85 2281.27 157.155C2281.27 147.46 2289.13 139.6 2298.82 139.6C2308.52 139.6 2316.38 147.46 2316.38 157.155Z" fill="url(#paint15_linear_17_11)"/>
<path d="M1862.05 194.771C1862.05 214.162 1846.33 229.88 1826.94 229.88C1807.55 229.88 1791.83 214.162 1791.83 194.771C1791.83 175.381 1807.55 159.662 1826.94 159.662C1846.33 159.662 1862.05 175.381 1862.05 194.771Z" fill="url(#paint16_linear_17_11)"/>
<path d="M1867.07 305.114C1867.07 328.197 1848.35 346.91 1825.27 346.91C1802.19 346.91 1783.47 328.197 1783.47 305.114C1783.47 282.03 1802.19 263.317 1825.27 263.317C1848.35 263.317 1867.07 282.03 1867.07 305.114Z" fill="url(#paint17_linear_17_11)"/>
<path d="M2965.47 202.713C2965.47 225.565 2946.95 244.091 2924.1 244.091C2901.24 244.091 2882.72 225.565 2882.72 202.713C2882.72 179.86 2901.24 161.334 2924.1 161.334C2946.95 161.334 2965.47 179.86 2965.47 202.713Z" fill="url(#paint18_linear_17_11)"/>
<path d="M2958.79 311.383C2958.79 330.542 2943.26 346.074 2924.1 346.074C2904.94 346.074 2889.41 330.542 2889.41 311.383C2889.41 292.224 2904.94 276.692 2924.1 276.692C2943.26 276.692 2958.79 292.224 2958.79 311.383Z" fill="url(#paint19_linear_17_11)"/>
<path d="M2896.93 390.796C2896.93 408.57 2882.52 422.979 2864.75 422.979C2846.97 422.979 2832.56 408.57 2832.56 390.796C2832.56 373.022 2846.97 358.613 2864.75 358.613C2882.52 358.613 2896.93 373.022 2896.93 390.796Z" fill="url(#paint20_linear_17_11)"/>
<path d="M2815.84 442.206C2815.84 457.441 2803.49 469.791 2788.26 469.791C2773.02 469.791 2760.67 457.441 2760.67 442.206C2760.67 426.971 2773.02 414.62 2788.26 414.62C2803.49 414.62 2815.84 426.971 2815.84 442.206Z" fill="url(#paint21_linear_17_11)"/>
<path d="M2734.76 457.252C2734.76 472.487 2722.41 484.838 2707.17 484.838C2691.94 484.838 2679.59 472.487 2679.59 457.252C2679.59 442.017 2691.94 429.667 2707.17 429.667C2722.41 429.667 2734.76 442.017 2734.76 457.252Z" fill="url(#paint22_linear_17_11)"/>
<path d="M2650.75 454.327C2650.75 466.561 2640.83 476.479 2628.6 476.479C2616.36 476.479 2606.44 466.561 2606.44 454.327C2606.44 442.092 2616.36 432.174 2628.6 432.174C2640.83 432.174 2650.75 442.092 2650.75 454.327Z" fill="url(#paint23_linear_17_11)"/>
<path d="M2579.28 426.741C2579.28 436.667 2571.23 444.713 2561.3 444.713C2551.38 444.713 2543.33 436.667 2543.33 426.741C2543.33 416.815 2551.38 408.769 2561.3 408.769C2571.23 408.769 2579.28 416.815 2579.28 426.741Z" fill="url(#paint24_linear_17_11)"/>
<path d="M2522.43 390.796C2522.43 400.722 2514.39 408.769 2504.46 408.769C2494.54 408.769 2486.49 400.722 2486.49 390.796C2486.49 380.87 2494.54 372.824 2504.46 372.824C2514.39 372.824 2522.43 380.87 2522.43 390.796Z" fill="url(#paint25_linear_17_11)"/>
<defs>
<linearGradient id="paint0_linear_17_11" x1="1847.84" y1="252.032" x2="2907.79" y2="252.032" gradientUnits="userSpaceOnUse">
<stop stop-color="#47963D"/>
<stop offset="0.355" stop-color="#F4AE01"/>
<stop offset="0.7" stop-color="#F25700"/>
<stop offset="1" stop-color="#EB0500"/>
</linearGradient>
<linearGradient id="paint1_linear_17_11" x1="1847.84" y1="252.032" x2="2907.79" y2="252.032" gradientUnits="userSpaceOnUse">
<stop stop-color="#47963D"/>
<stop offset="0.355" stop-color="#F4AE01"/>
<stop offset="0.7" stop-color="#F25700"/>
<stop offset="1" stop-color="#EB0500"/>
</linearGradient>
<linearGradient id="paint2_linear_17_11" x1="1847.84" y1="252.032" x2="2907.79" y2="252.032" gradientUnits="userSpaceOnUse">
<stop stop-color="#47963D"/>
<stop offset="0.355" stop-color="#F4AE01"/>
<stop offset="0.7" stop-color="#F25700"/>
<stop offset="1" stop-color="#EB0500"/>
</linearGradient>
<linearGradient id="paint3_linear_17_11" x1="1847.84" y1="252.032" x2="2907.79" y2="252.032" gradientUnits="userSpaceOnUse">
<stop stop-color="#47963D"/>
<stop offset="0.355" stop-color="#F4AE01"/>
<stop offset="0.7" stop-color="#F25700"/>
<stop offset="1" stop-color="#EB0500"/>
</linearGradient>
<linearGradient id="paint4_linear_17_11" x1="1847.84" y1="252.032" x2="2907.79" y2="252.032" gradientUnits="userSpaceOnUse">
<stop stop-color="#47963D"/>
<stop offset="0.355" stop-color="#F4AE01"/>
<stop offset="0.7" stop-color="#F25700"/>
<stop offset="1" stop-color="#EB0500"/>
</linearGradient>
<linearGradient id="paint5_linear_17_11" x1="1847.84" y1="252.032" x2="2907.79" y2="252.032" gradientUnits="userSpaceOnUse">
<stop stop-color="#47963D"/>
<stop offset="0.355" stop-color="#F4AE01"/>
<stop offset="0.7" stop-color="#F25700"/>
<stop offset="1" stop-color="#EB0500"/>
</linearGradient>
<linearGradient id="paint6_linear_17_11" x1="1847.84" y1="252.032" x2="2907.79" y2="252.032" gradientUnits="userSpaceOnUse">
<stop stop-color="#47963D"/>
<stop offset="0.355" stop-color="#F4AE01"/>
<stop offset="0.7" stop-color="#F25700"/>
<stop offset="1" stop-color="#EB0500"/>
</linearGradient>
<linearGradient id="paint7_linear_17_11" x1="1847.84" y1="252.032" x2="2907.79" y2="252.032" gradientUnits="userSpaceOnUse">
<stop stop-color="#47963D"/>
<stop offset="0.355" stop-color="#F4AE01"/>
<stop offset="0.7" stop-color="#F25700"/>
<stop offset="1" stop-color="#EB0500"/>
</linearGradient>
<linearGradient id="paint8_linear_17_11" x1="1847.84" y1="252.032" x2="2907.79" y2="252.032" gradientUnits="userSpaceOnUse">
<stop stop-color="#47963D"/>
<stop offset="0.355" stop-color="#F4AE01"/>
<stop offset="0.7" stop-color="#F25700"/>
<stop offset="1" stop-color="#EB0500"/>
</linearGradient>
<linearGradient id="paint9_linear_17_11" x1="1783.47" y1="253.704" x2="2965.47" y2="253.704" gradientUnits="userSpaceOnUse">
<stop stop-color="#47963D"/>
<stop offset="0.215" stop-color="#0C878C"/>
<stop offset="0.485" stop-color="#E10E9D"/>
<stop offset="1" stop-color="#EB0500"/>
</linearGradient>
<linearGradient id="paint10_linear_17_11" x1="1783.47" y1="253.704" x2="2965.47" y2="253.704" gradientUnits="userSpaceOnUse">
<stop stop-color="#47963D"/>
<stop offset="0.215" stop-color="#0C878C"/>
<stop offset="0.485" stop-color="#E10E9D"/>
<stop offset="1" stop-color="#EB0500"/>
</linearGradient>
<linearGradient id="paint11_linear_17_11" x1="1783.47" y1="253.704" x2="2965.47" y2="253.704" gradientUnits="userSpaceOnUse">
<stop stop-color="#47963D"/>
<stop offset="0.215" stop-color="#0C878C"/>
<stop offset="0.485" stop-color="#E10E9D"/>
<stop offset="1" stop-color="#EB0500"/>
</linearGradient>
<linearGradient id="paint12_linear_17_11" x1="1783.47" y1="253.704" x2="2965.47" y2="253.704" gradientUnits="userSpaceOnUse">
<stop stop-color="#47963D"/>
<stop offset="0.215" stop-color="#0C878C"/>
<stop offset="0.485" stop-color="#E10E9D"/>
<stop offset="1" stop-color="#EB0500"/>
</linearGradient>
<linearGradient id="paint13_linear_17_11" x1="1783.47" y1="253.704" x2="2965.47" y2="253.704" gradientUnits="userSpaceOnUse">
<stop stop-color="#47963D"/>
<stop offset="0.215" stop-color="#0C878C"/>
<stop offset="0.485" stop-color="#E10E9D"/>
<stop offset="1" stop-color="#EB0500"/>
</linearGradient>
<linearGradient id="paint14_linear_17_11" x1="1783.47" y1="253.704" x2="2965.47" y2="253.704" gradientUnits="userSpaceOnUse">
<stop stop-color="#47963D"/>
<stop offset="0.215" stop-color="#0C878C"/>
<stop offset="0.485" stop-color="#E10E9D"/>
<stop offset="1" stop-color="#EB0500"/>
</linearGradient>
<linearGradient id="paint15_linear_17_11" x1="1783.47" y1="253.704" x2="2965.47" y2="253.704" gradientUnits="userSpaceOnUse">
<stop stop-color="#47963D"/>
<stop offset="0.215" stop-color="#0C878C"/>
<stop offset="0.485" stop-color="#E10E9D"/>
<stop offset="1" stop-color="#EB0500"/>
</linearGradient>
<linearGradient id="paint16_linear_17_11" x1="1783.47" y1="253.704" x2="2965.47" y2="253.704" gradientUnits="userSpaceOnUse">
<stop stop-color="#47963D"/>
<stop offset="0.215" stop-color="#0C878C"/>
<stop offset="0.485" stop-color="#E10E9D"/>
<stop offset="1" stop-color="#EB0500"/>
</linearGradient>
<linearGradient id="paint17_linear_17_11" x1="1783.47" y1="253.704" x2="2965.47" y2="253.704" gradientUnits="userSpaceOnUse">
<stop stop-color="#47963D"/>
<stop offset="0.215" stop-color="#0C878C"/>
<stop offset="0.485" stop-color="#E10E9D"/>
<stop offset="1" stop-color="#EB0500"/>
</linearGradient>
<linearGradient id="paint18_linear_17_11" x1="1783.47" y1="253.704" x2="2965.47" y2="253.704" gradientUnits="userSpaceOnUse">
<stop stop-color="#47963D"/>
<stop offset="0.215" stop-color="#0C878C"/>
<stop offset="0.485" stop-color="#E10E9D"/>
<stop offset="1" stop-color="#EB0500"/>
</linearGradient>
<linearGradient id="paint19_linear_17_11" x1="1783.47" y1="253.704" x2="2965.47" y2="253.704" gradientUnits="userSpaceOnUse">
<stop stop-color="#47963D"/>
<stop offset="0.215" stop-color="#0C878C"/>
<stop offset="0.485" stop-color="#E10E9D"/>
<stop offset="1" stop-color="#EB0500"/>
</linearGradient>
<linearGradient id="paint20_linear_17_11" x1="1783.47" y1="253.704" x2="2965.47" y2="253.704" gradientUnits="userSpaceOnUse">
<stop stop-color="#47963D"/>
<stop offset="0.215" stop-color="#0C878C"/>
<stop offset="0.485" stop-color="#E10E9D"/>
<stop offset="1" stop-color="#EB0500"/>
</linearGradient>
<linearGradient id="paint21_linear_17_11" x1="1783.47" y1="253.704" x2="2965.47" y2="253.704" gradientUnits="userSpaceOnUse">
<stop stop-color="#47963D"/>
<stop offset="0.215" stop-color="#0C878C"/>
<stop offset="0.485" stop-color="#E10E9D"/>
<stop offset="1" stop-color="#EB0500"/>
</linearGradient>
<linearGradient id="paint22_linear_17_11" x1="1783.47" y1="253.704" x2="2965.47" y2="253.704" gradientUnits="userSpaceOnUse">
<stop stop-color="#47963D"/>
<stop offset="0.215" stop-color="#0C878C"/>
<stop offset="0.485" stop-color="#E10E9D"/>
<stop offset="1" stop-color="#EB0500"/>
</linearGradient>
<linearGradient id="paint23_linear_17_11" x1="1783.47" y1="253.704" x2="2965.47" y2="253.704" gradientUnits="userSpaceOnUse">
<stop stop-color="#47963D"/>
<stop offset="0.215" stop-color="#0C878C"/>
<stop offset="0.485" stop-color="#E10E9D"/>
<stop offset="1" stop-color="#EB0500"/>
</linearGradient>
<linearGradient id="paint24_linear_17_11" x1="1783.47" y1="253.704" x2="2965.47" y2="253.704" gradientUnits="userSpaceOnUse">
<stop stop-color="#47963D"/>
<stop offset="0.215" stop-color="#0C878C"/>
<stop offset="0.485" stop-color="#E10E9D"/>
<stop offset="1" stop-color="#EB0500"/>
</linearGradient>
<linearGradient id="paint25_linear_17_11" x1="1783.47" y1="253.704" x2="2965.47" y2="253.704" gradientUnits="userSpaceOnUse">
<stop stop-color="#47963D"/>
<stop offset="0.215" stop-color="#0C878C"/>
<stop offset="0.485" stop-color="#E10E9D"/>
<stop offset="1" stop-color="#EB0500"/>
</linearGradient>
</defs>
</svg>
