<?xml version="1.0" encoding="UTF-8" standalone="no"?>
<!-- Created with Inkscape (http://www.inkscape.org/) -->

<svg
   width="782.65863mm"
   height="133.36696mm"
   viewBox="0 0 782.65863 133.36696"
   version="1.1"
   id="svg1"
   xml:space="preserve"
   xmlns:xlink="http://www.w3.org/1999/xlink"
   xmlns="http://www.w3.org/2000/svg"
   xmlns:svg="http://www.w3.org/2000/svg"><defs
     id="defs1"><linearGradient
       id="paint0_linear_17_33"
       x1="64.365196"
       y1="252.032"
       x2="1124.3199"
       y2="252.032"
       gradientUnits="userSpaceOnUse"><stop
         stop-color="#47963D"
         id="stop30-9" /><stop
         offset="0.355"
         stop-color="#F4AE01"
         id="stop31-2" /><stop
         offset="0.7"
         stop-color="#F25700"
         id="stop32-2" /><stop
         offset="1"
         stop-color="#EB0500"
         id="stop33-8" /></linearGradient><linearGradient
       id="paint9_linear_17_33"
       x1="0"
       y1="253.70399"
       x2="1182"
       y2="253.70399"
       gradientUnits="userSpaceOnUse"><stop
         stop-color="#47963D"
         id="stop66-9" /><stop
         offset="0.215"
         stop-color="#0C878C"
         id="stop67-7" /><stop
         offset="0.485"
         stop-color="#E10E9D"
         id="stop68-3" /><stop
         offset="1"
         stop-color="#EB0500"
         id="stop69-6" /></linearGradient><linearGradient
       xlink:href="#paint0_linear_17_33"
       id="linearGradient2"
       gradientUnits="userSpaceOnUse"
       x1="64.365196"
       y1="252.032"
       x2="1124.3199"
       y2="252.032" /><linearGradient
       xlink:href="#paint0_linear_17_33"
       id="linearGradient3"
       gradientUnits="userSpaceOnUse"
       x1="64.365196"
       y1="252.032"
       x2="1124.3199"
       y2="252.032" /><linearGradient
       xlink:href="#paint0_linear_17_33"
       id="linearGradient4"
       gradientUnits="userSpaceOnUse"
       x1="64.365196"
       y1="252.032"
       x2="1124.3199"
       y2="252.032" /><linearGradient
       xlink:href="#paint0_linear_17_33"
       id="linearGradient5"
       gradientUnits="userSpaceOnUse"
       x1="64.365196"
       y1="252.032"
       x2="1124.3199"
       y2="252.032" /><linearGradient
       xlink:href="#paint0_linear_17_33"
       id="linearGradient6"
       gradientUnits="userSpaceOnUse"
       x1="64.365196"
       y1="252.032"
       x2="1124.3199"
       y2="252.032" /><linearGradient
       xlink:href="#paint0_linear_17_33"
       id="linearGradient7"
       gradientUnits="userSpaceOnUse"
       x1="64.365196"
       y1="252.032"
       x2="1124.3199"
       y2="252.032" /><linearGradient
       xlink:href="#paint0_linear_17_33"
       id="linearGradient8"
       gradientUnits="userSpaceOnUse"
       x1="64.365196"
       y1="252.032"
       x2="1124.3199"
       y2="252.032" /><linearGradient
       xlink:href="#paint0_linear_17_33"
       id="linearGradient9"
       gradientUnits="userSpaceOnUse"
       x1="64.365196"
       y1="252.032"
       x2="1124.3199"
       y2="252.032" /><linearGradient
       xlink:href="#paint0_linear_17_33"
       id="linearGradient10"
       gradientUnits="userSpaceOnUse"
       x1="64.365196"
       y1="252.032"
       x2="1124.3199"
       y2="252.032" /><linearGradient
       xlink:href="#paint9_linear_17_33"
       id="linearGradient11"
       gradientUnits="userSpaceOnUse"
       x1="0"
       y1="253.70399"
       x2="1182"
       y2="253.70399" /><linearGradient
       xlink:href="#paint9_linear_17_33"
       id="linearGradient12"
       gradientUnits="userSpaceOnUse"
       x1="0"
       y1="253.70399"
       x2="1182"
       y2="253.70399" /><linearGradient
       xlink:href="#paint9_linear_17_33"
       id="linearGradient13"
       gradientUnits="userSpaceOnUse"
       x1="0"
       y1="253.70399"
       x2="1182"
       y2="253.70399" /><linearGradient
       xlink:href="#paint9_linear_17_33"
       id="linearGradient14"
       gradientUnits="userSpaceOnUse"
       x1="0"
       y1="253.70399"
       x2="1182"
       y2="253.70399" /><linearGradient
       xlink:href="#paint9_linear_17_33"
       id="linearGradient15"
       gradientUnits="userSpaceOnUse"
       x1="0"
       y1="253.70399"
       x2="1182"
       y2="253.70399" /><linearGradient
       xlink:href="#paint9_linear_17_33"
       id="linearGradient16"
       gradientUnits="userSpaceOnUse"
       x1="0"
       y1="253.70399"
       x2="1182"
       y2="253.70399" /><linearGradient
       xlink:href="#paint9_linear_17_33"
       id="linearGradient17"
       gradientUnits="userSpaceOnUse"
       x1="0"
       y1="253.70399"
       x2="1182"
       y2="253.70399" /><linearGradient
       xlink:href="#paint9_linear_17_33"
       id="linearGradient18"
       gradientUnits="userSpaceOnUse"
       x1="0"
       y1="253.70399"
       x2="1182"
       y2="253.70399" /><linearGradient
       xlink:href="#paint9_linear_17_33"
       id="linearGradient19"
       gradientUnits="userSpaceOnUse"
       x1="0"
       y1="253.70399"
       x2="1182"
       y2="253.70399" /><linearGradient
       xlink:href="#paint9_linear_17_33"
       id="linearGradient20"
       gradientUnits="userSpaceOnUse"
       x1="0"
       y1="253.70399"
       x2="1182"
       y2="253.70399" /><linearGradient
       xlink:href="#paint9_linear_17_33"
       id="linearGradient21"
       gradientUnits="userSpaceOnUse"
       x1="0"
       y1="253.70399"
       x2="1182"
       y2="253.70399" /><linearGradient
       xlink:href="#paint9_linear_17_33"
       id="linearGradient22"
       gradientUnits="userSpaceOnUse"
       x1="0"
       y1="253.70399"
       x2="1182"
       y2="253.70399" /><linearGradient
       xlink:href="#paint9_linear_17_33"
       id="linearGradient23"
       gradientUnits="userSpaceOnUse"
       x1="0"
       y1="253.70399"
       x2="1182"
       y2="253.70399" /><linearGradient
       xlink:href="#paint9_linear_17_33"
       id="linearGradient24"
       gradientUnits="userSpaceOnUse"
       x1="0"
       y1="253.70399"
       x2="1182"
       y2="253.70399" /><linearGradient
       xlink:href="#paint9_linear_17_33"
       id="linearGradient25"
       gradientUnits="userSpaceOnUse"
       x1="0"
       y1="253.70399"
       x2="1182"
       y2="253.70399" /><linearGradient
       xlink:href="#paint9_linear_17_33"
       id="linearGradient26"
       gradientUnits="userSpaceOnUse"
       x1="0"
       y1="253.70399"
       x2="1182"
       y2="253.70399" /><linearGradient
       xlink:href="#paint9_linear_17_33"
       id="linearGradient27"
       gradientUnits="userSpaceOnUse"
       x1="0"
       y1="253.70399"
       x2="1182"
       y2="253.70399" /></defs><g
     id="layer1"
     transform="translate(319.84808,-295.97903)"><g
       style="fill:none"
       id="g2"
       transform="matrix(0.26458333,0,0,0.26458333,-319.84808,295.97904)"><path
         d="m 146.286,411.276 c 0,22.622 -18.339,40.96 -40.96,40.96 -22.6222,0 -40.9608,-18.338 -40.9608,-40.96 0,-22.622 18.3386,-40.961 40.9608,-40.961 22.621,0 40.96,18.339 40.96,40.961 z"
         fill="url(#paint0_linear_17_33)"
         id="path1-3"
         style="fill:url(#linearGradient2)" /><path
         d="m 297.589,446.385 c 0,31.855 -25.824,57.679 -57.679,57.679 -31.855,0 -57.679,-25.824 -57.679,-57.679 0,-31.855 25.824,-57.679 57.679,-57.679 31.855,0 57.679,25.824 57.679,57.679 z"
         fill="url(#paint1_linear_17_33)"
         id="path2-6"
         style="fill:url(#linearGradient3)" /><path
         d="m 432.173,412.53 c 0,28.392 -23.017,51.409 -51.41,51.409 -28.392,0 -51.409,-23.017 -51.409,-51.409 0,-28.393 23.017,-51.41 51.409,-51.41 28.393,0 51.41,23.017 51.41,51.41 z"
         fill="url(#paint2_linear_17_33)"
         id="path3-7"
         style="fill:url(#linearGradient4)" /><path
         d="m 540.843,342.73 c 0,24.93 -20.21,45.14 -45.14,45.14 -24.93,0 -45.14,-20.21 -45.14,-45.14 0,-24.93 20.21,-45.14 45.14,-45.14 24.93,0 45.14,20.21 45.14,45.14 z"
         fill="url(#paint3_linear_17_33)"
         id="path4-5"
         style="fill:url(#linearGradient5)" /><path
         d="m 638.647,252.45 c 0,22.622 -18.339,40.96 -40.961,40.96 -22.622,0 -40.96,-18.338 -40.96,-40.96 0,-22.622 18.338,-40.961 40.96,-40.961 22.622,0 40.961,18.339 40.961,40.961 z"
         fill="url(#paint4_linear_17_33)"
         id="path5-3"
         style="fill:url(#linearGradient6)" /><path
         d="m 728.091,161.334 c 0,22.622 -18.339,40.96 -40.961,40.96 -22.621,0 -40.96,-18.338 -40.96,-40.96 0,-22.622 18.339,-40.961 40.96,-40.961 22.622,0 40.961,18.339 40.961,40.961 z"
         fill="url(#paint5_linear_17_33)"
         id="path6-5"
         style="fill:url(#linearGradient7)" /><path
         d="m 856.406,90.698 c 0,27.469 -22.269,49.738 -49.738,49.738 -27.469,0 -49.738,-22.269 -49.738,-49.738 0,-27.4693 22.269,-49.7376 49.738,-49.7376 27.469,0 49.738,22.2683 49.738,49.7376 z"
         fill="url(#paint6_linear_17_33)"
         id="path7-6"
         style="fill:url(#linearGradient8)" /><path
         d="m 1000.6,55.5891 c 0,30.701 -24.885,55.5889 -55.586,55.5889 -30.701,0 -55.589,-24.8879 -55.589,-55.5889 C 889.425,24.8881 914.313,0 945.014,0 975.715,0 1000.6,24.8881 1000.6,55.5891 Z"
         fill="url(#paint7_linear_17_33)"
         id="path8-2"
         style="fill:url(#linearGradient9)" /><path
         d="m 1124.32,93.2058 c 0,25.1612 -20.4,45.5582 -45.56,45.5582 -25.16,0 -45.56,-20.397 -45.56,-45.5582 0,-25.161 20.4,-45.558 45.56,-45.558 25.16,0 45.56,20.397 45.56,45.558 z"
         fill="url(#paint8_linear_17_33)"
         id="path9-9"
         style="fill:url(#linearGradient10)" /><path
         d="m 135.42,113.687 c 0,18.467 -14.97,33.437 -33.437,33.437 -18.4667,0 -33.437,-14.97 -33.437,-33.437 0,-18.467 14.9703,-33.4373 33.437,-33.4373 18.467,0 33.437,14.9703 33.437,33.4373 z"
         fill="url(#paint9_linear_17_33)"
         id="path10-1"
         style="fill:url(#linearGradient11)" /><path
         d="m 206.474,63.5312 c 0,15.2351 -12.351,27.5856 -27.586,27.5856 -15.235,0 -27.585,-12.3505 -27.585,-27.5856 0,-15.2351 12.35,-27.5856 27.585,-27.5856 15.235,0 27.586,12.3505 27.586,27.5856 z"
         fill="url(#paint10_linear_17_33)"
         id="path11-2"
         style="fill:url(#linearGradient12)" /><path
         d="m 286.723,48.4845 c 0,14.3118 -11.602,25.9137 -25.914,25.9137 -14.312,0 -25.914,-11.6019 -25.914,-25.9137 0,-14.3117 11.602,-25.9137 25.914,-25.9137 14.312,0 25.914,11.602 25.914,25.9137 z"
         fill="url(#paint11_linear_17_33)"
         id="path12-7"
         style="fill:url(#linearGradient13)" /><path
         d="m 361.12,51.4103 c 0,11.7725 -9.543,21.3161 -21.316,21.3161 -11.772,0 -21.316,-9.5436 -21.316,-21.3161 0,-11.7726 9.544,-21.3162 21.316,-21.3162 11.773,0 21.316,9.5436 21.316,21.3162 z"
         fill="url(#paint12_linear_17_33)"
         id="path13-0"
         style="fill:url(#linearGradient14)" /><path
         d="m 426.74,79.4138 c 0,10.6184 -8.607,19.2263 -19.226,19.2263 -10.618,0 -19.226,-8.6079 -19.226,-19.2263 0,-10.6184 8.608,-19.2263 19.226,-19.2263 10.619,0 19.226,8.6079 19.226,19.2263 z"
         fill="url(#paint13_linear_17_33)"
         id="path14-9"
         style="fill:url(#linearGradient15)" /><path
         d="m 483.166,114.105 c 0,10.387 -8.421,18.808 -18.809,18.808 -10.387,0 -18.808,-8.421 -18.808,-18.808 0,-10.388 8.421,-18.8086 18.808,-18.8086 10.388,0 18.809,8.4206 18.809,18.8086 z"
         fill="url(#paint14_linear_17_33)"
         id="path15-3"
         style="fill:url(#linearGradient16)" /><path
         d="m 532.903,157.155 c 0,9.695 -7.859,17.554 -17.554,17.554 -9.695,0 -17.555,-7.859 -17.555,-17.554 0,-9.695 7.86,-17.555 17.555,-17.555 9.695,0 17.554,7.86 17.554,17.555 z"
         fill="url(#paint15_linear_17_33)"
         id="path16-6"
         style="fill:url(#linearGradient17)" /><path
         d="m 78.5771,194.772 c 0,19.39 -15.7188,35.109 -35.1089,35.109 -19.3901,0 -35.10894,-15.719 -35.10894,-35.109 0,-19.39 15.71884,-35.109 35.10894,-35.109 19.3901,0 35.1089,15.719 35.1089,35.109 z"
         fill="url(#paint16_linear_17_33)"
         id="path17-0"
         style="fill:url(#linearGradient18)" /><path
         d="m 83.5926,305.114 c 0,23.083 -18.7128,41.796 -41.7963,41.796 C 18.7129,346.91 0,328.197 0,305.114 0,282.03 18.7129,263.318 41.7963,263.318 c 23.0835,0 41.7963,18.712 41.7963,41.796 z"
         fill="url(#paint17_linear_17_33)"
         id="path18-6"
         style="fill:url(#linearGradient19)" /><path
         d="m 1182,202.713 c 0,22.853 -18.53,41.378 -41.38,41.378 -22.85,0 -41.38,-18.525 -41.38,-41.378 0,-22.853 18.53,-41.378 41.38,-41.378 22.85,0 41.38,18.525 41.38,41.378 z"
         fill="url(#paint18_linear_17_33)"
         id="path19-2"
         style="fill:url(#linearGradient20)" /><path
         d="m 1175.31,311.383 c 0,19.16 -15.53,34.691 -34.69,34.691 -19.16,0 -34.69,-15.531 -34.69,-34.691 0,-19.159 15.53,-34.691 34.69,-34.691 19.16,0 34.69,15.532 34.69,34.691 z"
         fill="url(#paint19_linear_17_33)"
         id="path20-6"
         style="fill:url(#linearGradient21)" /><path
         d="m 1113.45,390.796 c 0,17.775 -14.4,32.184 -32.18,32.184 -17.77,0 -32.18,-14.409 -32.18,-32.184 0,-17.774 14.41,-32.183 32.18,-32.183 17.78,0 32.18,14.409 32.18,32.183 z"
         fill="url(#paint20_linear_17_33)"
         id="path21-1"
         style="fill:url(#linearGradient22)" /><path
         d="m 1032.37,442.206 c 0,15.235 -12.35,27.585 -27.59,27.585 -15.231,0 -27.582,-12.35 -27.582,-27.585 0,-15.235 12.351,-27.586 27.582,-27.586 15.24,0 27.59,12.351 27.59,27.586 z"
         fill="url(#paint21_linear_17_33)"
         id="path22-8"
         style="fill:url(#linearGradient23)" /><path
         d="m 951.284,457.253 c 0,15.235 -12.35,27.585 -27.585,27.585 -15.235,0 -27.586,-12.35 -27.586,-27.585 0,-15.236 12.351,-27.586 27.586,-27.586 15.235,0 27.585,12.35 27.585,27.586 z"
         fill="url(#paint22_linear_17_33)"
         id="path23-7"
         style="fill:url(#linearGradient24)" /><path
         d="m 867.274,454.327 c 0,12.234 -9.918,22.152 -22.152,22.152 -12.235,0 -22.152,-9.918 -22.152,-22.152 0,-12.234 9.917,-22.152 22.152,-22.152 12.234,0 22.152,9.918 22.152,22.152 z"
         fill="url(#paint23_linear_17_33)"
         id="path24-9"
         style="fill:url(#linearGradient25)" /><path
         d="m 795.802,426.741 c 0,9.926 -8.047,17.973 -17.972,17.973 -9.926,0 -17.973,-8.047 -17.973,-17.973 0,-9.926 8.047,-17.972 17.973,-17.972 9.925,0 17.972,8.046 17.972,17.972 z"
         fill="url(#paint24_linear_17_33)"
         id="path25-2"
         style="fill:url(#linearGradient26)" /><path
         d="m 738.959,390.796 c 0,9.926 -8.047,17.973 -17.972,17.973 -9.926,0 -17.973,-8.047 -17.973,-17.973 0,-9.926 8.047,-17.972 17.973,-17.972 9.925,0 17.972,8.046 17.972,17.972 z"
         fill="url(#paint25_linear_17_33)"
         id="path26-0"
         style="fill:url(#linearGradient27)" /><path
         d="m 1483.62,199.587 c 2.16,57.667 3.02,115.335 4.31,173.002 1.3,42.058 -63.41,42.058 -64.27,0 -0.43,-16.91 -0.86,-34.254 -1.73,-51.597 l -64.7,-2.602 c -4.75,21.68 -8.63,43.793 -12.51,65.472 -7.34,41.191 -69.45,23.848 -62.12,-17.343 9.92,-56.367 21.14,-112.3 44.43,-165.197 17.69,-39.023 49.18,-93.222 90.59,-110.999 63.84,-27.3161 64.7,71.542 66,109.264 z m -105.69,47.261 c -0.86,2.602 -1.72,4.77 -2.59,7.371 15.1,0.434 30.2,1.301 45.3,1.735 -0.43,-19.078 -0.86,-37.723 -1.73,-56.367 -0.43,-7.371 0,-16.043 -0.43,-24.714 -4.31,5.203 -8.63,10.839 -12.51,16.91 -11.21,16.91 -20.7,35.987 -28.04,55.065 z"
         fill="#034ab1"
         id="path27-2"
         style="fill:#ededed;fill-opacity:1" /><path
         d="m 1696.89,127.613 c 5.67,-41.2885 68.9,-23.904 62.8,17.384 -11.78,79.968 -26.61,159.068 -44.05,238.167 -5.67,25.642 -48.41,33.465 -59.75,7.388 -13.95,-31.292 -27.47,-63.018 -41.43,-94.745 -8.72,37.811 -17.01,75.622 -23.98,113.868 -7.85,41.288 -71.09,23.469 -63.24,-17.384 13.08,-69.103 28.78,-137.337 47.1,-205.137 6.98,-25.207 48.41,-34.769 59.75,-7.823 l 38.81,88.226 c 8.72,-46.503 17.01,-93.006 23.99,-139.944 z"
         fill="#034ab1"
         id="path28-3"
         style="fill:#ededed;fill-opacity:1" /><path
         d="m 1962.71,298.537 c 41.39,1.739 41.39,66.94 0,65.201 -39.24,-1.738 -78.47,0 -117.27,6.52 -18.11,2.608 -43.98,-8.258 -40.96,-31.731 9.91,-79.98 21.55,-159.959 35.78,-239.939 0.86,-4.7814 2.59,-9.1281 4.74,-12.6055 5.18,-8.2588 13.8,-14.3442 25.87,-14.3442 31.05,-1.304 62.52,-0.8694 93.56,1.304 41.39,3.0427 41.39,68.2437 0,65.2007 -21.99,-1.304 -43.54,-2.173 -65.53,-2.173 -2.59,16.952 -5.61,33.904 -8.19,50.422 11.64,0.435 22.85,0.869 34.06,2.173 17.67,1.739 32.33,13.475 32.33,32.601 0,16.517 -14.66,34.339 -32.33,32.6 -14.66,-1.739 -29.32,-2.173 -43.98,-2.173 -2.16,16.517 -4.74,33.035 -6.9,49.552 29.32,-2.608 59.07,-3.912 88.82,-2.608 z"
         fill="#034ab1"
         id="path29-7"
         style="fill:#ededed;fill-opacity:1" /><path
         d="m 2175.85,164.677 c 0.63,1.177 0.95,2.196 0.95,3.06 0.07,0.784 -0.16,1.529 -0.71,2.236 -0.55,0.627 -1.41,1.216 -2.59,1.765 -1.88,0.863 -3.37,1.059 -4.47,0.588 -1.02,-0.47 -1.96,-1.608 -2.83,-3.413 l -29.42,-62.609 -29.18,62.492 c -0.87,1.804 -1.85,2.942 -2.95,3.413 -1.02,0.47 -2.51,0.274 -4.47,-0.589 -1.17,-0.471 -2.04,-1.059 -2.59,-1.765 -0.47,-0.706 -0.66,-1.569 -0.59,-2.589 0.16,-1.02 0.55,-2.197 1.18,-3.531 l 33.78,-70.4941 c 0.47,-0.9415 1.14,-1.6868 2,-2.236 0.94,-0.6277 1.92,-0.9415 2.94,-0.9415 0.71,0 1.37,0.1177 2,0.3531 0.63,0.2353 1.18,0.5884 1.65,1.0591 0.47,0.4708 0.86,1.0984 1.18,1.883 z m -61.19,-15.888 4,-9.062 h 36.48 l 3.89,9.062 z m 93.69,23.537 c -3.45,0 -6.67,-0.627 -9.65,-1.883 -2.91,-1.255 -5.46,-3.02 -7.65,-5.296 -2.2,-2.275 -3.92,-5.021 -5.18,-8.238 -1.18,-3.216 -1.77,-6.865 -1.77,-10.944 v -25.538 c 0,-1.099 0.12,-2.04 0.36,-2.825 0.23,-0.785 0.7,-1.373 1.41,-1.765 0.78,-0.471 1.92,-0.706 3.41,-0.706 1.49,0 2.59,0.235 3.3,0.706 0.78,0.47 1.29,1.098 1.53,1.883 0.23,0.784 0.35,1.726 0.35,2.824 v 25.538 c 0,3.217 0.55,6.081 1.65,8.591 1.1,2.432 2.74,4.315 4.94,5.649 2.28,1.334 5.02,2.001 8.24,2.001 3.29,0 6.12,-0.667 8.47,-2.001 2.44,-1.334 4.28,-3.217 5.53,-5.649 1.34,-2.51 2,-5.374 2,-8.591 v -25.655 c 0,-1.099 0.12,-2.04 0.36,-2.825 0.23,-0.785 0.7,-1.373 1.41,-1.765 0.78,-0.471 1.92,-0.706 3.41,-0.706 1.49,0 2.59,0.235 3.3,0.706 0.78,0.47 1.25,1.098 1.41,1.883 0.24,0.784 0.35,1.726 0.35,2.824 v 46.722 c 0,0.941 -0.11,1.804 -0.35,2.589 -0.16,0.706 -0.63,1.255 -1.41,1.647 -0.71,0.393 -1.81,0.589 -3.3,0.589 -1.1,0 -2,-0.118 -2.7,-0.353 -0.63,-0.236 -1.1,-0.549 -1.42,-0.942 -0.31,-0.392 -0.55,-0.823 -0.7,-1.294 -0.08,-0.549 -0.12,-1.099 -0.12,-1.648 l 0.47,-5.06 c -0.78,0.941 -1.73,1.961 -2.82,3.06 -1.1,1.098 -2.4,2.157 -3.89,3.177 -1.41,0.942 -3.02,1.726 -4.82,2.354 -1.81,0.627 -3.85,0.941 -6.12,0.941 z m 68.13,-0.117 c -3.68,0 -6.82,-0.353 -9.41,-1.06 -2.51,-0.706 -4.59,-1.804 -6.24,-3.295 -1.65,-1.49 -2.82,-3.413 -3.53,-5.766 -0.7,-2.433 -1.06,-5.414 -1.06,-8.945 v -52.017 c 0,-1.098 0.12,-2.04 0.36,-2.8245 0.23,-0.7846 0.7,-1.373 1.41,-1.7653 0.7,-0.4708 1.8,-0.7062 3.29,-0.7062 1.49,0 2.63,0.2354 3.42,0.7062 0.78,0.3923 1.29,0.9807 1.53,1.7653 0.23,0.7061 0.35,1.6083 0.35,2.7065 v 52.135 c 0,2.04 0.16,3.688 0.47,4.943 0.39,1.177 0.94,2.079 1.65,2.707 0.78,0.628 1.8,1.02 3.06,1.177 1.25,0.157 2.78,0.235 4.59,0.235 1.25,0 2.27,0.118 3.06,0.353 0.78,0.236 1.37,0.706 1.76,1.413 0.39,0.706 0.59,1.765 0.59,3.177 0,1.491 -0.23,2.628 -0.71,3.413 -0.39,0.706 -1.02,1.138 -1.88,1.295 -0.78,0.235 -1.69,0.353 -2.71,0.353 z m -26.36,-55.666 11.3,0.118 16.36,-0.236 c 1.1,0 2.04,0.118 2.82,0.353 0.79,0.157 1.38,0.628 1.77,1.412 0.47,0.707 0.71,1.805 0.71,3.296 0,1.49 -0.2,2.628 -0.59,3.413 -0.4,0.706 -0.98,1.176 -1.77,1.412 -0.78,0.235 -1.72,0.353 -2.82,0.353 l -16.13,-0.235 -11.88,0.117 c -1.65,0 -2.79,-0.392 -3.42,-1.177 -0.54,-0.784 -0.82,-2.079 -0.82,-3.883 0,-1.726 0.35,-2.982 1.06,-3.766 0.71,-0.785 1.84,-1.177 3.41,-1.177 z m 49.55,55.666 c -1.49,0 -2.63,-0.236 -3.42,-0.707 -0.7,-0.392 -1.17,-0.98 -1.41,-1.765 -0.23,-0.784 -0.35,-1.726 -0.35,-2.824 v -46.486 c 0,-1.099 0.12,-2.04 0.35,-2.825 0.24,-0.785 0.71,-1.373 1.41,-1.765 0.79,-0.393 1.96,-0.589 3.53,-0.589 1.49,0 2.59,0.236 3.3,0.706 0.71,0.393 1.18,0.981 1.41,1.766 0.24,0.784 0.35,1.765 0.35,2.942 v 46.368 c 0,1.099 -0.11,2.04 -0.35,2.825 -0.23,0.784 -0.74,1.373 -1.53,1.765 -0.7,0.392 -1.8,0.589 -3.29,0.589 z m 0,-71.083 c -1.73,0 -3.02,-0.235 -3.89,-0.706 -0.86,-0.5494 -1.45,-1.2947 -1.76,-2.2362 -0.24,-0.9415 -0.36,-2.0399 -0.36,-3.2952 0,-1.2554 0.16,-2.3146 0.47,-3.1776 0.32,-0.9415 0.91,-1.6084 1.77,-2.0007 0.86,-0.4707 2.16,-0.7061 3.88,-0.7061 1.65,0 2.91,0.2354 3.77,0.7061 0.86,0.4708 1.41,1.1769 1.65,2.1184 0.31,0.9415 0.47,2.0399 0.47,3.2952 0,1.2553 -0.16,2.3538 -0.47,3.2952 -0.24,0.8631 -0.79,1.53 -1.65,2.0009 -0.86,0.471 -2.16,0.706 -3.88,0.706 z m 39.5,71.671 c -1.89,0 -3.85,-0.196 -5.89,-0.588 -2.04,-0.393 -4.04,-0.942 -6,-1.648 -1.88,-0.785 -3.57,-1.687 -5.06,-2.707 -1.41,-1.02 -2.47,-2.157 -3.18,-3.413 -0.39,-0.784 -0.63,-1.49 -0.7,-2.118 -0.08,-0.706 0.03,-1.373 0.35,-2.001 0.31,-0.627 0.78,-1.255 1.41,-1.883 0.79,-0.941 1.57,-1.373 2.35,-1.294 0.79,0 1.77,0.51 2.95,1.53 0.86,0.549 1.88,1.177 3.06,1.883 1.17,0.627 2.39,1.216 3.64,1.765 1.26,0.471 2.52,0.902 3.77,1.294 1.33,0.314 2.63,0.471 3.88,0.471 3.61,0 6.52,-0.667 8.71,-2 2.2,-1.413 3.3,-3.256 3.3,-5.532 0,-1.333 -0.28,-2.471 -0.83,-3.413 -0.54,-0.941 -1.29,-1.726 -2.23,-2.353 -0.94,-0.706 -2,-1.295 -3.18,-1.766 -1.18,-0.47 -2.51,-0.902 -4,-1.294 -1.41,-0.471 -2.83,-0.902 -4.24,-1.295 -2.12,-0.549 -4.19,-1.177 -6.23,-1.883 -2.04,-0.706 -3.89,-1.608 -5.54,-2.707 -1.64,-1.176 -2.98,-2.628 -4,-4.354 -1.02,-1.804 -1.53,-4.08 -1.53,-6.826 0,-3.217 0.83,-6.002 2.47,-8.355 1.65,-2.354 3.97,-4.159 6.95,-5.414 2.98,-1.334 6.47,-2.001 10.47,-2.001 1.73,0 3.34,0.118 4.83,0.353 1.49,0.236 2.9,0.628 4.23,1.177 1.42,0.471 2.75,1.059 4.01,1.765 1.25,0.628 2.47,1.413 3.64,2.354 1.42,0.942 2.16,1.962 2.24,3.06 0.08,1.098 -0.35,2.236 -1.3,3.413 -0.7,1.02 -1.49,1.687 -2.35,2.001 -0.86,0.235 -1.72,0 -2.59,-0.706 -1.25,-0.942 -2.59,-1.766 -4,-2.472 -1.41,-0.706 -2.86,-1.294 -4.35,-1.765 -1.49,-0.471 -3.02,-0.706 -4.59,-0.706 -1.96,0 -3.73,0.314 -5.3,0.941 -1.49,0.549 -2.67,1.412 -3.53,2.589 -0.78,1.099 -1.18,2.354 -1.18,3.766 0,1.256 0.32,2.276 0.94,3.06 0.71,0.785 1.57,1.452 2.59,2.001 1.1,0.549 2.36,1.059 3.77,1.53 1.49,0.392 3.02,0.784 4.59,1.177 2.27,0.549 4.59,1.216 6.94,2 2.44,0.706 4.59,1.687 6.48,2.942 1.96,1.177 3.53,2.786 4.7,4.826 1.26,1.961 1.89,4.589 1.89,7.885 0,5.178 -2.04,9.258 -6.12,12.239 -4.08,2.981 -9.5,4.472 -16.24,4.472 z m 40.12,-0.588 c -1.49,0 -2.58,-0.236 -3.29,-0.707 -0.71,-0.47 -1.18,-1.098 -1.41,-1.883 -0.24,-0.784 -0.36,-1.726 -0.36,-2.824 v -46.604 c 0,-1.098 0.12,-2.001 0.36,-2.707 0.23,-0.706 0.7,-1.255 1.41,-1.647 0.78,-0.393 1.92,-0.589 3.41,-0.589 1.73,0 2.94,0.353 3.65,1.059 0.79,0.628 1.18,1.766 1.18,3.413 l -0.47,5.061 c 0.55,-1.177 1.37,-2.354 2.47,-3.531 1.1,-1.177 2.39,-2.236 3.88,-3.177 1.57,-0.942 3.22,-1.687 4.94,-2.236 1.73,-0.549 3.5,-0.824 5.3,-0.824 2.75,0 5.18,0.51 7.3,1.53 2.19,0.941 4.16,2.314 5.88,4.119 1.73,1.804 3.18,4.04 4.36,6.708 1.57,-2.589 3.21,-4.786 4.94,-6.59 1.8,-1.883 3.84,-3.296 6.12,-4.237 2.27,-1.02 4.82,-1.53 7.65,-1.53 4.47,0 8.2,1.138 11.18,3.413 3.06,2.197 5.33,5.335 6.82,9.415 1.57,4.001 2.36,8.826 2.36,14.475 v 24.597 c 0,1.098 -0.12,2.04 -0.35,2.824 -0.16,0.785 -0.63,1.373 -1.42,1.765 -0.7,0.471 -1.84,0.707 -3.41,0.707 -1.49,0 -2.63,-0.236 -3.41,-0.707 -0.71,-0.47 -1.18,-1.098 -1.42,-1.883 -0.23,-0.784 -0.35,-1.726 -0.35,-2.824 v -24.596 c 0,-3.531 -0.43,-6.552 -1.29,-9.062 -0.79,-2.589 -2.04,-4.59 -3.77,-6.002 -1.65,-1.413 -3.8,-2.119 -6.47,-2.119 -2.83,0 -5.34,0.706 -7.53,2.119 -2.12,1.333 -3.77,3.295 -4.95,5.884 -1.17,2.589 -1.76,5.649 -1.76,9.18 v 24.831 c 0,1.177 -0.24,2.197 -0.71,3.06 -0.47,0.863 -1.17,1.452 -2.12,1.766 -0.94,0.392 -2.08,0.47 -3.41,0.235 -1.25,-0.157 -2.2,-0.471 -2.82,-0.942 -0.63,-0.47 -1.02,-1.059 -1.18,-1.765 -0.16,-0.784 -0.24,-1.647 -0.24,-2.589 v -24.596 c 0,-3.531 -0.43,-6.552 -1.29,-9.062 -0.78,-2.589 -2.04,-4.59 -3.77,-6.002 -1.64,-1.413 -3.8,-2.119 -6.47,-2.119 -2.82,0 -5.33,0.746 -7.53,2.236 -2.12,1.413 -3.77,3.413 -4.94,6.002 -1.18,2.589 -1.77,5.571 -1.77,8.945 v 24.714 c 0,1.098 -0.12,2.04 -0.35,2.824 -0.24,0.785 -0.75,1.373 -1.53,1.765 -0.71,0.471 -1.85,0.707 -3.42,0.707 z m 117.95,0.706 c -3.85,0 -7.53,-0.746 -11.07,-2.236 -3.45,-1.491 -6.55,-3.531 -9.29,-6.12 -2.75,-2.668 -4.91,-5.767 -6.48,-9.297 -1.56,-3.531 -2.35,-7.375 -2.35,-11.534 0,-4.079 0.75,-7.845 2.24,-11.297 1.49,-3.531 3.57,-6.63 6.23,-9.298 2.67,-2.667 5.73,-4.746 9.18,-6.237 3.53,-1.569 7.3,-2.354 11.3,-2.354 5.42,0 10.28,1.295 14.59,3.884 4.4,2.511 7.89,5.963 10.48,10.356 2.59,4.394 3.88,9.337 3.88,14.829 0,4.315 -0.78,8.277 -2.35,11.886 -1.57,3.531 -3.69,6.591 -6.36,9.18 -2.66,2.589 -5.72,4.629 -9.18,6.119 -3.45,1.413 -7.06,2.119 -10.82,2.119 z M 2497,162.676 c 3.3,0 6.36,-0.824 9.18,-2.471 2.83,-1.648 5.1,-3.923 6.83,-6.826 1.72,-2.903 2.59,-6.198 2.59,-9.886 0,-3.687 -0.83,-6.943 -2.48,-9.768 -1.56,-2.824 -3.76,-5.021 -6.59,-6.59 -2.82,-1.569 -6.04,-2.354 -9.65,-2.354 -3.45,0 -6.59,0.824 -9.41,2.471 -2.75,1.648 -4.98,3.884 -6.71,6.708 -1.65,2.825 -2.47,6.042 -2.47,9.651 0,3.766 0.86,7.1 2.59,10.003 1.72,2.825 4,5.061 6.82,6.708 2.91,1.569 6.01,2.354 9.3,2.354 z m 79.23,32.364 c -1.88,-0.785 -2.98,-1.687 -3.3,-2.707 -0.31,-1.02 -0.04,-2.432 0.83,-4.237 l 31.18,-70.023 c 0.87,-1.805 1.77,-2.903 2.71,-3.295 1.02,-0.471 2.43,-0.314 4.24,0.47 1.88,0.863 2.94,1.805 3.18,2.825 0.31,1.02 0.07,2.393 -0.71,4.119 l -31.42,70.376 c -0.79,1.805 -1.65,2.864 -2.59,3.178 -0.94,0.314 -2.32,0.078 -4.12,-0.706 z m 11.65,-30.363 -26.95,-41.544 c -1.02,-1.569 -1.41,-2.863 -1.18,-3.883 0.24,-1.099 1.14,-2.158 2.71,-3.178 1.73,-1.098 3.1,-1.491 4.12,-1.177 1.1,0.236 2.2,1.138 3.29,2.707 l 22.83,35.894 z m -479.7,131.532 c -1.33,0 -2.39,-0.236 -3.17,-0.707 -0.71,-0.47 -1.22,-1.098 -1.53,-1.883 -0.24,-0.863 -0.36,-1.843 -0.36,-2.942 v -71.671 c 0,-1.02 0.16,-1.883 0.47,-2.589 0.32,-0.706 0.87,-1.255 1.65,-1.647 0.87,-0.471 2.04,-0.707 3.53,-0.707 1.73,0 2.95,0.157 3.65,0.471 0.71,0.314 1.41,0.863 2.12,1.648 l 44.25,62.609 v -59.785 c 0,-1.02 0.12,-1.883 0.35,-2.589 0.32,-0.706 0.87,-1.255 1.65,-1.647 0.79,-0.471 1.92,-0.707 3.41,-0.707 1.42,0 2.47,0.236 3.18,0.707 0.79,0.47 1.3,1.137 1.53,2 0.31,0.785 0.47,1.687 0.47,2.707 v 71.318 c 0,1.02 -0.19,1.961 -0.59,2.824 -0.31,0.785 -0.9,1.413 -1.76,1.883 -0.79,0.471 -1.92,0.707 -3.41,0.707 -1.26,0 -2.32,-0.157 -3.18,-0.471 -0.79,-0.314 -1.53,-0.902 -2.24,-1.765 l -44.48,-62.139 v 58.961 c 0,1.02 -0.16,1.961 -0.47,2.824 -0.32,0.785 -0.87,1.413 -1.65,1.883 -0.79,0.471 -1.92,0.707 -3.42,0.707 z m 104.86,0.588 c -4.7,0 -8.9,-0.785 -12.59,-2.354 -3.69,-1.569 -6.82,-3.687 -9.41,-6.355 -2.51,-2.746 -4.44,-5.884 -5.77,-9.415 -1.33,-3.53 -2,-7.335 -2,-11.415 0,-5.414 1.26,-10.239 3.77,-14.476 2.51,-4.236 5.96,-7.571 10.35,-10.003 4.47,-2.511 9.57,-3.766 15.3,-3.766 3.92,0 7.42,0.628 10.48,1.883 3.13,1.177 5.8,2.785 8,4.825 2.19,2.04 3.88,4.315 5.06,6.826 1.18,2.511 1.76,5.021 1.76,7.532 0,4.001 -0.94,6.826 -2.82,8.473 -1.88,1.569 -4.2,2.354 -6.94,2.354 h -34.02 c -0.07,3.452 0.83,6.434 2.71,8.944 1.96,2.432 4.39,4.315 7.3,5.649 2.98,1.334 5.96,2.001 8.94,2.001 2.2,0 4.08,-0.118 5.65,-0.353 1.57,-0.236 2.94,-0.549 4.12,-0.942 1.18,-0.392 2.2,-0.784 3.06,-1.177 0.86,-0.392 1.61,-0.784 2.24,-1.176 0.7,-0.393 1.37,-0.667 2,-0.824 0.7,-0.157 1.37,-0.079 2,0.235 0.7,0.235 1.25,0.745 1.64,1.53 0.48,0.628 0.79,1.216 0.95,1.765 0.15,0.55 0.23,1.138 0.23,1.766 0,1.098 -0.94,2.314 -2.82,3.648 -1.89,1.334 -4.51,2.471 -7.89,3.413 -3.29,0.941 -7.06,1.412 -11.3,1.412 z m -18.83,-32.835 h 29.54 c 1.49,0 2.59,-0.196 3.3,-0.588 0.78,-0.392 1.18,-1.451 1.18,-3.177 0,-2.197 -0.67,-4.159 -2,-5.885 -1.34,-1.804 -3.18,-3.256 -5.54,-4.354 -2.27,-1.099 -4.9,-1.648 -7.88,-1.648 -3.45,0 -6.63,0.706 -9.53,2.119 -2.83,1.333 -5.06,3.177 -6.71,5.531 -1.65,2.354 -2.43,5.021 -2.36,8.002 z m 78.15,32.364 c -3.45,0 -6.67,-0.627 -9.65,-1.883 -2.9,-1.255 -5.45,-3.02 -7.65,-5.296 -2.19,-2.275 -3.92,-5.021 -5.18,-8.238 -1.17,-3.216 -1.76,-6.865 -1.76,-10.944 v -25.538 c 0,-1.099 0.12,-2.04 0.35,-2.825 0.24,-0.785 0.71,-1.373 1.41,-1.765 0.79,-0.471 1.93,-0.706 3.42,-0.706 1.49,0 2.59,0.235 3.29,0.706 0.79,0.47 1.3,1.098 1.53,1.883 0.24,0.784 0.36,1.726 0.36,2.824 v 25.538 c 0,3.217 0.55,6.081 1.64,8.591 1.1,2.432 2.75,4.315 4.95,5.649 2.27,1.334 5.02,2.001 8.23,2.001 3.3,0 6.12,-0.667 8.48,-2.001 2.43,-1.334 4.27,-3.217 5.53,-5.649 1.33,-2.51 2,-5.374 2,-8.591 v -25.655 c 0,-1.099 0.12,-2.04 0.35,-2.825 0.24,-0.785 0.71,-1.373 1.42,-1.765 0.78,-0.471 1.92,-0.706 3.41,-0.706 1.49,0 2.59,0.235 3.29,0.706 0.79,0.47 1.26,1.098 1.42,1.883 0.23,0.784 0.35,1.726 0.35,2.824 v 46.722 c 0,0.941 -0.12,1.804 -0.35,2.589 -0.16,0.706 -0.63,1.255 -1.42,1.647 -0.7,0.393 -1.8,0.589 -3.29,0.589 -1.1,0 -2,-0.118 -2.71,-0.353 -0.63,-0.236 -1.1,-0.549 -1.41,-0.942 -0.31,-0.392 -0.55,-0.823 -0.71,-1.294 -0.08,-0.549 -0.11,-1.099 -0.11,-1.648 l 0.47,-5.06 c -0.79,0.941 -1.73,1.961 -2.83,3.06 -1.1,1.098 -2.39,2.157 -3.88,3.177 -1.41,0.942 -3.02,1.726 -4.83,2.354 -1.8,0.627 -3.84,0.941 -6.12,0.941 z m 46.49,-0.117 c -1.5,0 -2.63,-0.236 -3.42,-0.707 -0.7,-0.392 -1.17,-0.98 -1.41,-1.765 -0.16,-0.863 -0.24,-1.844 -0.24,-2.942 v -46.368 c 0,-1.177 0.12,-2.158 0.36,-2.943 0.23,-0.784 0.7,-1.333 1.41,-1.647 0.71,-0.393 1.84,-0.589 3.41,-0.589 1.42,0 2.47,0.196 3.18,0.589 0.79,0.314 1.3,0.824 1.53,1.53 0.31,0.627 0.47,1.373 0.47,2.236 l -0.47,3.53 c 0.55,-1.02 1.18,-2.04 1.88,-3.06 0.79,-1.019 1.73,-1.922 2.83,-2.706 1.17,-0.863 2.55,-1.569 4.12,-2.119 1.64,-0.549 3.65,-0.823 6,-0.823 1.18,0 2.27,0.117 3.29,0.353 1.1,0.156 2.12,0.431 3.06,0.823 1.02,0.393 1.89,0.863 2.59,1.413 0.71,0.47 1.26,1.02 1.65,1.647 0.47,0.549 0.71,1.216 0.71,2.001 0,1.726 -0.55,3.217 -1.65,4.472 -1.1,1.177 -2.24,1.765 -3.41,1.765 -1.02,0 -1.77,-0.117 -2.24,-0.353 -0.47,-0.314 -0.94,-0.627 -1.41,-0.941 -0.39,-0.314 -0.98,-0.589 -1.77,-0.824 -0.78,-0.314 -2.04,-0.471 -3.76,-0.471 -1.18,0 -2.44,0.236 -3.77,0.706 -1.25,0.471 -2.47,1.177 -3.65,2.119 -1.17,0.863 -2.15,2 -2.94,3.413 -0.71,1.412 -1.06,3.059 -1.06,4.942 v 31.54 c 0,1.099 -0.12,2.04 -0.35,2.825 -0.24,0.784 -0.75,1.373 -1.53,1.765 -0.71,0.392 -1.85,0.589 -3.41,0.589 z m 66.68,0.706 c -3.85,0 -7.54,-0.746 -11.07,-2.236 -3.45,-1.491 -6.55,-3.531 -9.29,-6.12 -2.75,-2.668 -4.91,-5.767 -6.48,-9.297 -1.56,-3.531 -2.35,-7.375 -2.35,-11.534 0,-4.079 0.75,-7.845 2.24,-11.297 1.49,-3.531 3.57,-6.63 6.23,-9.298 2.67,-2.667 5.73,-4.746 9.18,-6.237 3.53,-1.569 7.3,-2.354 11.3,-2.354 5.42,0 10.28,1.295 14.59,3.884 4.4,2.511 7.89,5.963 10.48,10.356 2.59,4.394 3.88,9.337 3.88,14.829 0,4.315 -0.78,8.277 -2.35,11.886 -1.57,3.531 -3.69,6.591 -6.36,9.18 -2.66,2.589 -5.72,4.629 -9.18,6.119 -3.45,1.413 -7.06,2.119 -10.82,2.119 z m -0.24,-10.239 c 3.3,0 6.36,-0.824 9.18,-2.471 2.83,-1.648 5.1,-3.923 6.83,-6.826 1.72,-2.903 2.59,-6.198 2.59,-9.886 0,-3.687 -0.83,-6.943 -2.48,-9.768 -1.56,-2.824 -3.76,-5.021 -6.59,-6.59 -2.82,-1.569 -6.04,-2.354 -9.65,-2.354 -3.45,0 -6.59,0.824 -9.41,2.471 -2.75,1.648 -4.98,3.884 -6.71,6.708 -1.65,2.825 -2.47,6.042 -2.47,9.651 0,3.766 0.86,7.1 2.59,10.003 1.72,2.825 4,5.061 6.82,6.708 2.91,1.569 6.01,2.354 9.3,2.354 z m 64.91,9.533 c -3.53,0 -6.9,-0.707 -10.12,-2.119 -3.21,-1.412 -6.04,-3.413 -8.47,-6.002 -2.35,-2.589 -4.24,-5.609 -5.65,-9.062 -1.33,-3.53 -2,-7.375 -2,-11.533 0,-4.08 0.67,-7.846 2,-11.298 1.41,-3.452 3.3,-6.433 5.65,-8.944 2.43,-2.589 5.26,-4.59 8.47,-6.002 3.22,-1.412 6.59,-2.118 10.12,-2.118 3.85,0 7.3,0.706 10.36,2.118 3.14,1.412 5.81,3.413 8,6.002 2.28,2.511 4,5.531 5.18,9.062 1.18,3.452 1.77,7.218 1.77,11.298 0.07,4.158 -0.51,7.963 -1.77,11.415 -1.18,3.453 -2.86,6.473 -5.06,9.062 -2.2,2.589 -4.86,4.59 -8,6.002 -3.06,1.412 -6.55,2.119 -10.48,2.119 z m 1.53,-10.004 c 3.3,0 6.24,-0.784 8.83,-2.353 2.67,-1.57 4.75,-3.727 6.24,-6.473 1.57,-2.825 2.35,-6.041 2.35,-9.651 0,-3.687 -0.78,-6.904 -2.35,-9.65 -1.49,-2.824 -3.57,-5.021 -6.24,-6.59 -2.59,-1.569 -5.53,-2.354 -8.83,-2.354 -3.29,0 -6.27,0.785 -8.94,2.354 -2.67,1.569 -4.79,3.766 -6.36,6.59 -1.49,2.746 -2.23,5.963 -2.23,9.65 0,3.61 0.74,6.826 2.23,9.651 1.57,2.746 3.69,4.903 6.36,6.473 2.75,1.569 5.73,2.353 8.94,2.353 z m 23.07,10.004 c -1.73,0 -2.98,-0.314 -3.77,-0.942 -0.78,-0.628 -1.25,-1.687 -1.41,-3.177 v -73.672 c 0,-1.177 0.08,-2.158 0.24,-2.942 0.23,-0.785 0.7,-1.373 1.41,-1.766 0.78,-0.47 1.92,-0.706 3.41,-0.706 1.49,0 2.59,0.236 3.3,0.706 0.78,0.393 1.29,0.981 1.53,1.766 0.23,0.784 0.35,1.726 0.35,2.824 v 72.495 c 0,1.098 -0.12,2.079 -0.35,2.942 -0.24,0.785 -0.71,1.373 -1.41,1.765 -0.71,0.471 -1.81,0.707 -3.3,0.707 z m 25.53,0 c -1.49,0 -2.63,-0.236 -3.41,-0.707 -0.71,-0.392 -1.18,-0.98 -1.41,-1.765 -0.24,-0.784 -0.36,-1.726 -0.36,-2.824 v -46.486 c 0,-1.099 0.12,-2.04 0.36,-2.825 0.23,-0.785 0.7,-1.373 1.41,-1.765 0.78,-0.393 1.96,-0.589 3.53,-0.589 1.49,0 2.59,0.236 3.29,0.706 0.71,0.393 1.18,0.981 1.42,1.766 0.23,0.784 0.35,1.765 0.35,2.942 v 46.368 c 0,1.099 -0.12,2.04 -0.35,2.825 -0.24,0.784 -0.75,1.373 -1.53,1.765 -0.71,0.392 -1.81,0.589 -3.3,0.589 z m 0,-71.083 c -1.73,0 -3.02,-0.235 -3.88,-0.706 -0.87,-0.549 -1.45,-1.295 -1.77,-2.236 -0.23,-0.942 -0.35,-2.04 -0.35,-3.295 0,-1.256 0.16,-2.315 0.47,-3.178 0.31,-0.941 0.9,-1.608 1.77,-2.001 0.86,-0.47 2.15,-0.706 3.88,-0.706 1.65,0 2.9,0.236 3.76,0.706 0.87,0.471 1.42,1.177 1.65,2.119 0.32,0.941 0.47,2.04 0.47,3.295 0,1.255 -0.15,2.354 -0.47,3.295 -0.23,0.863 -0.78,1.53 -1.65,2.001 -0.86,0.471 -2.15,0.706 -3.88,0.706 z m 44.68,71.318 c -1.34,0 -2.43,-0.196 -3.3,-0.588 -0.78,-0.393 -1.45,-1.099 -2,-2.119 l -21.77,-47.427 c -0.86,-1.883 -1.06,-3.296 -0.59,-4.237 0.47,-1.02 1.57,-1.962 3.3,-2.825 1.57,-0.784 2.9,-1.02 4,-0.706 1.1,0.236 2.04,1.256 2.82,3.06 l 17.54,41.779 17.18,-40.602 c 0.86,-1.805 1.81,-3.099 2.83,-3.884 1.02,-0.784 2.62,-0.627 4.82,0.471 2.12,1.02 3.18,2.197 3.18,3.531 0,1.255 -0.36,2.628 -1.06,4.119 l -21.66,46.603 c -0.39,0.942 -1.02,1.648 -1.88,2.119 -0.86,0.471 -2,0.706 -3.41,0.706 z m 62.35,0.353 c -4.7,0 -8.9,-0.785 -12.59,-2.354 -3.69,-1.569 -6.83,-3.687 -9.41,-6.355 -2.51,-2.746 -4.44,-5.884 -5.77,-9.415 -1.33,-3.53 -2,-7.335 -2,-11.415 0,-5.414 1.25,-10.239 3.76,-14.476 2.52,-4.236 5.97,-7.571 10.36,-10.003 4.47,-2.511 9.57,-3.766 15.3,-3.766 3.92,0 7.41,0.628 10.47,1.883 3.14,1.177 5.81,2.785 8.01,4.825 2.19,2.04 3.88,4.315 5.06,6.826 1.17,2.511 1.76,5.021 1.76,7.532 0,4.001 -0.94,6.826 -2.82,8.473 -1.88,1.569 -4.2,2.354 -6.95,2.354 h -34.01 c -0.08,3.452 0.83,6.434 2.71,8.944 1.96,2.432 4.39,4.315 7.3,5.649 2.98,1.334 5.96,2.001 8.94,2.001 2.2,0 4.08,-0.118 5.65,-0.353 1.57,-0.236 2.94,-0.549 4.12,-0.942 1.18,-0.392 2.2,-0.784 3.06,-1.177 0.86,-0.392 1.61,-0.784 2.23,-1.176 0.71,-0.393 1.38,-0.667 2.01,-0.824 0.7,-0.157 1.37,-0.079 2,0.235 0.7,0.235 1.25,0.745 1.64,1.53 0.47,0.628 0.79,1.216 0.95,1.765 0.15,0.55 0.23,1.138 0.23,1.766 0,1.098 -0.94,2.314 -2.82,3.648 -1.89,1.334 -4.52,2.471 -7.89,3.413 -3.29,0.941 -7.06,1.412 -11.3,1.412 z m -18.83,-32.835 h 29.54 c 1.49,0 2.59,-0.196 3.3,-0.588 0.78,-0.392 1.17,-1.451 1.17,-3.177 0,-2.197 -0.66,-4.159 -2,-5.885 -1.33,-1.804 -3.17,-3.256 -5.53,-4.354 -2.27,-1.099 -4.9,-1.648 -7.88,-1.648 -3.45,0 -6.63,0.706 -9.53,2.119 -2.83,1.333 -5.07,3.177 -6.71,5.531 -1.65,2.354 -2.44,5.021 -2.36,8.002 z m 60.73,32.247 c -1.49,0 -2.62,-0.236 -3.41,-0.707 -0.7,-0.392 -1.18,-0.98 -1.41,-1.765 -0.16,-0.863 -0.24,-1.844 -0.24,-2.942 v -46.368 c 0,-1.177 0.12,-2.158 0.36,-2.943 0.23,-0.784 0.7,-1.333 1.41,-1.647 0.71,-0.393 1.84,-0.589 3.41,-0.589 1.41,0 2.47,0.196 3.18,0.589 0.78,0.314 1.29,0.824 1.53,1.53 0.31,0.627 0.47,1.373 0.47,2.236 l -0.47,3.53 c 0.55,-1.02 1.18,-2.04 1.88,-3.06 0.79,-1.019 1.73,-1.922 2.83,-2.706 1.17,-0.863 2.55,-1.569 4.12,-2.119 1.64,-0.549 3.64,-0.823 6,-0.823 1.17,0 2.27,0.117 3.29,0.353 1.1,0.156 2.12,0.431 3.06,0.823 1.02,0.393 1.89,0.863 2.59,1.413 0.71,0.47 1.26,1.02 1.65,1.647 0.47,0.549 0.71,1.216 0.71,2.001 0,1.726 -0.55,3.217 -1.65,4.472 -1.1,1.177 -2.24,1.765 -3.41,1.765 -1.02,0 -1.77,-0.117 -2.24,-0.353 -0.47,-0.314 -0.94,-0.627 -1.41,-0.941 -0.4,-0.314 -0.98,-0.589 -1.77,-0.824 -0.78,-0.314 -2.04,-0.471 -3.76,-0.471 -1.18,0 -2.44,0.236 -3.77,0.706 -1.26,0.471 -2.47,1.177 -3.65,2.119 -1.18,0.863 -2.16,2 -2.94,3.413 -0.71,1.412 -1.06,3.059 -1.06,4.942 v 31.54 c 0,1.099 -0.12,2.04 -0.35,2.825 -0.24,0.784 -0.75,1.373 -1.53,1.765 -0.71,0.392 -1.85,0.589 -3.42,0.589 z m 58.37,0.588 c -1.89,0 -3.85,-0.196 -5.89,-0.588 -2.04,-0.393 -4.04,-0.942 -6,-1.648 -1.88,-0.785 -3.57,-1.687 -5.06,-2.707 -1.41,-1.02 -2.47,-2.157 -3.18,-3.413 -0.39,-0.784 -0.63,-1.49 -0.7,-2.118 -0.08,-0.706 0.03,-1.373 0.35,-2.001 0.31,-0.627 0.78,-1.255 1.41,-1.883 0.79,-0.941 1.57,-1.373 2.35,-1.294 0.79,0 1.77,0.51 2.95,1.53 0.86,0.549 1.88,1.177 3.06,1.883 1.17,0.627 2.39,1.216 3.64,1.765 1.26,0.471 2.52,0.902 3.77,1.294 1.33,0.314 2.63,0.471 3.88,0.471 3.61,0 6.52,-0.667 8.71,-2 2.2,-1.413 3.3,-3.256 3.3,-5.532 0,-1.333 -0.28,-2.471 -0.83,-3.413 -0.54,-0.941 -1.29,-1.726 -2.23,-2.353 -0.94,-0.706 -2,-1.295 -3.18,-1.766 -1.18,-0.47 -2.51,-0.902 -4,-1.294 -1.41,-0.471 -2.83,-0.902 -4.24,-1.295 -2.12,-0.549 -4.19,-1.177 -6.23,-1.883 -2.04,-0.706 -3.89,-1.608 -5.54,-2.707 -1.64,-1.176 -2.98,-2.628 -4,-4.354 -1.02,-1.804 -1.53,-4.08 -1.53,-6.826 0,-3.217 0.83,-6.002 2.47,-8.355 1.65,-2.354 3.97,-4.159 6.95,-5.414 2.98,-1.334 6.47,-2.001 10.47,-2.001 1.73,0 3.34,0.118 4.83,0.353 1.49,0.236 2.9,0.628 4.23,1.177 1.42,0.471 2.75,1.059 4.01,1.765 1.25,0.628 2.47,1.413 3.64,2.354 1.42,0.942 2.16,1.962 2.24,3.06 0.08,1.098 -0.35,2.236 -1.3,3.413 -0.7,1.02 -1.49,1.687 -2.35,2.001 -0.86,0.235 -1.73,0 -2.59,-0.706 -1.25,-0.942 -2.59,-1.766 -4,-2.472 -1.41,-0.706 -2.86,-1.294 -4.35,-1.765 -1.49,-0.471 -3.02,-0.706 -4.59,-0.706 -1.96,0 -3.73,0.314 -5.3,0.941 -1.49,0.549 -2.67,1.412 -3.53,2.589 -0.78,1.099 -1.18,2.354 -1.18,3.766 0,1.256 0.32,2.276 0.94,3.06 0.71,0.785 1.57,1.452 2.59,2.001 1.1,0.549 2.36,1.059 3.77,1.53 1.49,0.392 3.02,0.784 4.59,1.177 2.27,0.549 4.59,1.216 6.94,2 2.44,0.706 4.59,1.687 6.48,2.942 1.96,1.177 3.53,2.786 4.7,4.826 1.26,1.961 1.89,4.589 1.89,7.885 0,5.178 -2.04,9.258 -6.12,12.239 -4.08,2.981 -9.5,4.472 -16.24,4.472 z m 40.83,-0.588 c -1.49,0 -2.63,-0.236 -3.41,-0.707 -0.71,-0.392 -1.18,-0.98 -1.41,-1.765 -0.24,-0.784 -0.36,-1.726 -0.36,-2.824 v -46.486 c 0,-1.099 0.12,-2.04 0.36,-2.825 0.23,-0.785 0.7,-1.373 1.41,-1.765 0.78,-0.393 1.96,-0.589 3.53,-0.589 1.49,0 2.59,0.236 3.29,0.706 0.71,0.393 1.18,0.981 1.42,1.766 0.23,0.784 0.35,1.765 0.35,2.942 v 46.368 c 0,1.099 -0.12,2.04 -0.35,2.825 -0.24,0.784 -0.75,1.373 -1.53,1.765 -0.71,0.392 -1.81,0.589 -3.3,0.589 z m 0,-71.083 c -1.72,0 -3.02,-0.235 -3.88,-0.706 -0.87,-0.549 -1.45,-1.295 -1.77,-2.236 -0.23,-0.942 -0.35,-2.04 -0.35,-3.295 0,-1.256 0.16,-2.315 0.47,-3.178 0.31,-0.941 0.9,-1.608 1.77,-2.001 0.86,-0.47 2.15,-0.706 3.88,-0.706 1.65,0 2.9,0.236 3.76,0.706 0.87,0.471 1.42,1.177 1.65,2.119 0.32,0.941 0.47,2.04 0.47,3.295 0,1.255 -0.15,2.354 -0.47,3.295 -0.23,0.863 -0.78,1.53 -1.65,2.001 -0.86,0.471 -2.15,0.706 -3.88,0.706 z m 45.15,71.083 c -3.53,0 -6.9,-0.707 -10.12,-2.119 -3.22,-1.412 -6.04,-3.413 -8.47,-6.002 -2.36,-2.589 -4.24,-5.609 -5.65,-9.062 -1.34,-3.53 -2,-7.375 -2,-11.533 0,-4.08 0.66,-7.846 2,-11.298 1.41,-3.452 3.29,-6.433 5.65,-8.944 2.43,-2.589 5.25,-4.59 8.47,-6.002 3.22,-1.412 6.59,-2.118 10.12,-2.118 3.84,0 7.3,0.706 10.36,2.118 3.13,1.412 5.8,3.413 8,6.002 2.27,2.511 4,5.531 5.18,9.062 1.17,3.452 1.76,7.218 1.76,11.298 0.08,4.158 -0.51,7.963 -1.76,11.415 -1.18,3.453 -2.87,6.473 -5.06,9.062 -2.2,2.589 -4.87,4.59 -8.01,6.002 -3.06,1.412 -6.55,2.119 -10.47,2.119 z m 1.53,-10.004 c 3.29,0 6.24,-0.784 8.83,-2.353 2.66,-1.57 4.74,-3.727 6.23,-6.473 1.57,-2.825 2.36,-6.041 2.36,-9.651 0,-3.687 -0.79,-6.904 -2.36,-9.65 -1.49,-2.824 -3.57,-5.021 -6.23,-6.59 -2.59,-1.569 -5.54,-2.354 -8.83,-2.354 -3.3,0 -6.28,0.785 -8.94,2.354 -2.67,1.569 -4.79,3.766 -6.36,6.59 -1.49,2.746 -2.24,5.963 -2.24,9.65 0,3.61 0.75,6.826 2.24,9.651 1.57,2.746 3.69,4.903 6.36,6.473 2.74,1.569 5.72,2.353 8.94,2.353 z m 23.07,10.004 c -1.73,0 -2.99,-0.314 -3.77,-0.942 -0.78,-0.628 -1.26,-1.687 -1.41,-3.177 v -73.672 c 0,-1.177 0.08,-2.158 0.23,-2.942 0.24,-0.785 0.71,-1.373 1.42,-1.766 0.78,-0.47 1.92,-0.706 3.41,-0.706 1.49,0 2.59,0.236 3.29,0.706 0.79,0.393 1.3,0.981 1.53,1.766 0.24,0.784 0.36,1.726 0.36,2.824 v 72.495 c 0,1.098 -0.12,2.079 -0.36,2.942 -0.23,0.785 -0.7,1.373 -1.41,1.765 -0.7,0.471 -1.8,0.707 -3.29,0.707 z m 66.52,-0.118 c -1.72,0 -2.98,-0.353 -3.76,-1.059 -0.71,-0.706 -1.14,-1.805 -1.3,-3.295 l 0.47,-5.885 c -0.78,1.256 -2,2.707 -3.65,4.355 -1.64,1.569 -3.8,2.981 -6.47,4.236 -2.67,1.177 -5.92,1.766 -9.77,1.766 -3.76,0 -7.29,-0.746 -10.59,-2.236 -3.21,-1.491 -6.08,-3.57 -8.59,-6.238 -2.43,-2.667 -4.35,-5.727 -5.77,-9.179 -1.33,-3.453 -2,-7.14 -2,-11.063 0,-3.844 0.67,-7.453 2,-10.827 1.42,-3.452 3.38,-6.473 5.89,-9.062 2.51,-2.589 5.37,-4.629 8.59,-6.12 3.3,-1.49 6.79,-2.236 10.47,-2.236 3.46,0 6.4,0.471 8.83,1.413 2.43,0.863 4.51,2.039 6.24,3.53 1.8,1.412 3.37,3.021 4.71,4.825 l -0.24,-4.943 c -0.08,-1.726 0.27,-2.942 1.06,-3.648 0.86,-0.784 2.2,-1.177 4,-1.177 1.49,0 2.55,0.236 3.18,0.706 0.7,0.471 1.17,1.138 1.41,2.001 0.24,0.863 0.35,1.922 0.35,3.178 v 45.427 c 0,1.098 -0.11,2.079 -0.35,2.942 -0.24,0.863 -0.71,1.491 -1.41,1.883 -0.71,0.471 -1.81,0.706 -3.3,0.706 z m -22.71,-9.768 c 3.14,0 6,-0.824 8.59,-2.471 2.67,-1.648 4.75,-3.845 6.24,-6.591 1.57,-2.824 2.35,-6.041 2.35,-9.65 0,-3.688 -0.82,-6.905 -2.47,-9.651 -1.57,-2.824 -3.69,-5.021 -6.35,-6.59 -2.59,-1.648 -5.46,-2.471 -8.6,-2.471 -3.68,0 -6.9,0.863 -9.65,2.589 -2.66,1.647 -4.78,3.883 -6.35,6.708 -1.57,2.824 -2.36,6.041 -2.36,9.65 0,3.531 0.79,6.708 2.36,9.533 1.57,2.746 3.73,4.943 6.47,6.59 2.83,1.569 6.08,2.354 9.77,2.354 z m 66.4,9.886 c -3.53,0 -6.9,-0.707 -10.12,-2.119 -3.22,-1.412 -6.04,-3.413 -8.47,-6.002 -2.36,-2.589 -4.24,-5.609 -5.65,-9.062 -1.34,-3.53 -2,-7.375 -2,-11.533 0,-4.08 0.66,-7.846 2,-11.298 1.41,-3.452 3.29,-6.433 5.65,-8.944 2.43,-2.589 5.25,-4.59 8.47,-6.002 3.22,-1.412 6.59,-2.118 10.12,-2.118 3.84,0 7.3,0.706 10.36,2.118 3.14,1.412 5.8,3.413 8,6.002 2.27,2.511 4,5.531 5.18,9.062 1.17,3.452 1.76,7.218 1.76,11.298 0.08,4.158 -0.51,7.963 -1.76,11.415 -1.18,3.453 -2.87,6.473 -5.06,9.062 -2.2,2.589 -4.87,4.59 -8.01,6.002 -3.06,1.412 -6.55,2.119 -10.47,2.119 z m 1.53,-10.004 c 3.3,0 6.24,-0.784 8.83,-2.353 2.66,-1.57 4.74,-3.727 6.23,-6.473 1.57,-2.825 2.36,-6.041 2.36,-9.651 0,-3.687 -0.79,-6.904 -2.36,-9.65 -1.49,-2.824 -3.57,-5.021 -6.23,-6.59 -2.59,-1.569 -5.53,-2.354 -8.83,-2.354 -3.29,0 -6.28,0.785 -8.94,2.354 -2.67,1.569 -4.79,3.766 -6.36,6.59 -1.49,2.746 -2.24,5.963 -2.24,9.65 0,3.61 0.75,6.826 2.24,9.651 1.57,2.746 3.69,4.903 6.36,6.473 2.74,1.569 5.72,2.353 8.94,2.353 z m 23.07,10.004 c -1.73,0 -2.98,-0.314 -3.77,-0.942 -0.78,-0.628 -1.25,-1.687 -1.41,-3.177 v -73.672 c 0,-1.177 0.08,-2.158 0.23,-2.942 0.24,-0.785 0.71,-1.373 1.42,-1.766 0.78,-0.47 1.92,-0.706 3.41,-0.706 1.49,0 2.59,0.236 3.29,0.706 0.79,0.393 1.3,0.981 1.53,1.766 0.24,0.784 0.36,1.726 0.36,2.824 v 72.495 c 0,1.098 -0.12,2.079 -0.36,2.942 -0.23,0.785 -0.7,1.373 -1.41,1.765 -0.7,0.471 -1.8,0.707 -3.29,0.707 z m -843.31,124 c -1.56,0 -2.74,-0.236 -3.53,-0.707 -0.7,-0.392 -1.17,-0.98 -1.41,-1.765 -0.23,-0.863 -0.35,-1.844 -0.35,-2.942 v -71.436 c 0,-2.04 0.39,-3.413 1.18,-4.119 0.86,-0.784 2.35,-1.177 4.47,-1.177 h 47.31 c 1.1,0 2.04,0.118 2.82,0.353 0.79,0.236 1.38,0.746 1.77,1.53 0.39,0.785 0.59,1.962 0.59,3.531 0,1.569 -0.24,2.746 -0.71,3.531 -0.39,0.706 -0.98,1.176 -1.77,1.412 -0.78,0.235 -1.72,0.353 -2.82,0.353 h -42.25 v 24.361 h 29.42 c 1.1,0 2,0.118 2.71,0.353 0.78,0.235 1.37,0.706 1.76,1.412 0.4,0.706 0.59,1.805 0.59,3.296 0,1.412 -0.19,2.471 -0.59,3.177 -0.39,0.706 -0.98,1.177 -1.76,1.412 -0.79,0.157 -1.77,0.236 -2.94,0.236 h -29.19 v 26.597 h 42.37 c 1.1,0 2.04,0.118 2.82,0.353 0.79,0.235 1.38,0.745 1.77,1.53 0.39,0.706 0.59,1.844 0.59,3.413 0,1.569 -0.24,2.746 -0.71,3.53 -0.39,0.706 -0.98,1.177 -1.77,1.413 -0.78,0.235 -1.72,0.353 -2.82,0.353 z m 85.45,0.588 c -1.88,0 -3.84,-0.196 -5.88,-0.588 -2.04,-0.393 -4.04,-0.942 -6.01,-1.648 -1.88,-0.785 -3.57,-1.687 -5.06,-2.707 -1.41,-1.02 -2.47,-2.157 -3.17,-3.413 -0.4,-0.784 -0.63,-1.49 -0.71,-2.118 -0.08,-0.706 0.04,-1.373 0.35,-2.001 0.32,-0.627 0.79,-1.255 1.42,-1.883 0.78,-0.941 1.56,-1.373 2.35,-1.294 0.78,0 1.76,0.51 2.94,1.53 0.86,0.549 1.88,1.177 3.06,1.883 1.18,0.627 2.39,1.216 3.65,1.765 1.25,0.471 2.51,0.902 3.77,1.294 1.33,0.314 2.62,0.471 3.88,0.471 3.61,0 6.51,-0.667 8.71,-2 2.19,-1.413 3.29,-3.256 3.29,-5.532 0,-1.333 -0.27,-2.471 -0.82,-3.413 -0.55,-0.941 -1.3,-1.726 -2.24,-2.353 -0.94,-0.706 -2,-1.295 -3.17,-1.766 -1.18,-0.47 -2.51,-0.902 -4.01,-1.294 -1.41,-0.471 -2.82,-0.902 -4.23,-1.295 -2.12,-0.549 -4.2,-1.177 -6.24,-1.883 -2.04,-0.706 -3.88,-1.608 -5.53,-2.707 -1.65,-1.176 -2.98,-2.628 -4,-4.354 -1.02,-1.804 -1.53,-4.08 -1.53,-6.826 0,-3.217 0.82,-6.002 2.47,-8.355 1.65,-2.354 3.96,-4.159 6.94,-5.414 2.98,-1.334 6.48,-2.001 10.48,-2.001 1.72,0 3.33,0.118 4.82,0.353 1.49,0.236 2.9,0.628 4.24,1.177 1.41,0.471 2.74,1.059 4,1.765 1.26,0.628 2.47,1.413 3.65,2.354 1.41,0.942 2.16,1.962 2.23,3.06 0.08,1.098 -0.35,2.236 -1.29,3.413 -0.71,1.02 -1.49,1.687 -2.35,2.001 -0.87,0.235 -1.73,0 -2.59,-0.706 -1.26,-0.942 -2.59,-1.766 -4,-2.472 -1.42,-0.706 -2.87,-1.294 -4.36,-1.765 -1.49,-0.471 -3.02,-0.706 -4.59,-0.706 -1.96,0 -3.73,0.314 -5.29,0.941 -1.5,0.549 -2.67,1.412 -3.54,2.589 -0.78,1.099 -1.17,2.354 -1.17,3.766 0,1.256 0.31,2.276 0.94,3.06 0.71,0.785 1.57,1.452 2.59,2.001 1.1,0.549 2.35,1.059 3.76,1.53 1.5,0.392 3.03,0.784 4.59,1.177 2.28,0.549 4.59,1.216 6.95,2 2.43,0.706 4.59,1.687 6.47,2.942 1.96,1.177 3.53,2.786 4.71,4.826 1.25,1.961 1.88,4.589 1.88,7.885 0,5.178 -2.04,9.258 -6.12,12.239 -4.08,2.981 -9.49,4.472 -16.24,4.472 z m 63.9,-1.059 c -3.84,0 -7.33,-0.706 -10.47,-2.119 -3.14,-1.412 -5.81,-3.373 -8,-5.884 -2.2,-2.589 -3.93,-5.61 -5.18,-9.062 -1.18,-3.452 -1.73,-7.257 -1.65,-11.415 0,-4.08 0.59,-7.846 1.77,-11.298 1.17,-3.452 2.86,-6.434 5.06,-8.944 2.27,-2.589 4.94,-4.551 8,-5.885 3.14,-1.412 6.63,-2.118 10.47,-2.118 3.61,0 6.99,0.706 10.12,2.118 3.22,1.413 6.01,3.413 8.36,6.002 2.43,2.511 4.31,5.532 5.65,9.062 1.41,3.531 2.12,7.336 2.12,11.416 0,4.08 -0.71,7.846 -2.12,11.298 -1.34,3.452 -3.22,6.433 -5.65,8.944 -2.35,2.511 -5.14,4.472 -8.36,5.884 -3.13,1.334 -6.51,2.001 -10.12,2.001 z m -24.48,23.655 c -1.49,0 -2.62,-0.236 -3.41,-0.706 -0.71,-0.393 -1.22,-0.981 -1.53,-1.766 -0.23,-0.784 -0.35,-1.726 -0.35,-2.824 v -69.553 c 0,-1.098 0.12,-2.04 0.35,-2.824 0.24,-0.785 0.71,-1.373 1.41,-1.766 0.79,-0.47 1.93,-0.706 3.42,-0.706 1.72,0 2.98,0.275 3.76,0.824 0.87,0.549 1.38,1.53 1.53,2.942 v 70.965 c 0.08,1.099 0,2.04 -0.23,2.825 -0.24,0.863 -0.75,1.49 -1.53,1.883 -0.71,0.47 -1.85,0.706 -3.42,0.706 z m 22.95,-33.305 c 3.3,0 6.28,-0.785 8.95,-2.354 2.66,-1.648 4.74,-3.884 6.23,-6.708 1.57,-2.825 2.36,-6.042 2.36,-9.651 0,-3.687 -0.79,-6.904 -2.36,-9.65 -1.49,-2.746 -3.57,-4.864 -6.23,-6.355 -2.59,-1.569 -5.57,-2.354 -8.95,-2.354 -3.29,0 -6.27,0.785 -8.94,2.354 -2.59,1.569 -4.67,3.727 -6.24,6.473 -1.49,2.746 -2.23,5.923 -2.23,9.532 0,3.609 0.74,6.826 2.23,9.651 1.57,2.824 3.65,5.06 6.24,6.708 2.67,1.569 5.65,2.354 8.94,2.354 z m 58.17,10.121 c -2.52,0 -4.79,-0.236 -6.83,-0.707 -1.96,-0.392 -3.69,-1.059 -5.18,-2 -1.49,-0.942 -2.74,-2.158 -3.76,-3.648 -0.95,-1.491 -1.65,-3.296 -2.12,-5.414 -0.4,-2.118 -0.59,-4.59 -0.59,-7.414 v -58.844 c 0,-1.176 0.08,-2.157 0.23,-2.942 0.24,-0.784 0.75,-1.373 1.53,-1.765 0.79,-0.471 1.89,-0.706 3.3,-0.706 1.57,0 2.71,0.196 3.41,0.588 0.79,0.393 1.3,0.981 1.53,1.766 0.24,0.784 0.36,1.726 0.36,2.824 v 58.961 c 0,1.569 0.15,2.942 0.47,4.119 0.31,1.098 0.78,2.04 1.41,2.825 0.7,0.784 1.57,1.333 2.59,1.647 1.02,0.314 2.23,0.471 3.65,0.471 0.94,0 1.72,0.118 2.35,0.353 0.71,0.235 1.25,0.706 1.65,1.412 0.39,0.706 0.59,1.805 0.59,3.295 0,1.57 -0.2,2.746 -0.59,3.531 -0.4,0.706 -0.94,1.138 -1.65,1.295 -0.63,0.235 -1.41,0.353 -2.35,0.353 z m 36.65,0.117 c -3.45,0 -6.67,-0.627 -9.65,-1.883 -2.9,-1.255 -5.45,-3.02 -7.65,-5.296 -2.19,-2.275 -3.92,-5.021 -5.18,-8.238 -1.17,-3.216 -1.76,-6.865 -1.76,-10.944 v -25.538 c 0,-1.099 0.12,-2.04 0.35,-2.825 0.24,-0.785 0.71,-1.373 1.41,-1.765 0.79,-0.471 1.93,-0.706 3.42,-0.706 1.49,0 2.59,0.235 3.29,0.706 0.79,0.47 1.3,1.098 1.53,1.883 0.24,0.784 0.36,1.726 0.36,2.824 v 25.538 c 0,3.217 0.55,6.081 1.64,8.591 1.1,2.432 2.75,4.315 4.95,5.649 2.27,1.334 5.02,2.001 8.23,2.001 3.3,0 6.12,-0.667 8.48,-2.001 2.43,-1.334 4.27,-3.217 5.53,-5.649 1.33,-2.51 2,-5.374 2,-8.591 v -25.655 c 0,-1.099 0.12,-2.04 0.35,-2.825 0.24,-0.785 0.71,-1.373 1.42,-1.765 0.78,-0.471 1.92,-0.706 3.41,-0.706 1.49,0 2.59,0.235 3.29,0.706 0.79,0.47 1.26,1.098 1.42,1.883 0.23,0.784 0.35,1.726 0.35,2.824 v 46.722 c 0,0.941 -0.12,1.804 -0.35,2.589 -0.16,0.706 -0.63,1.255 -1.42,1.647 -0.7,0.393 -1.8,0.589 -3.29,0.589 -1.1,0 -2,-0.118 -2.71,-0.353 -0.63,-0.236 -1.1,-0.549 -1.41,-0.942 -0.31,-0.392 -0.55,-0.823 -0.71,-1.294 -0.08,-0.549 -0.11,-1.099 -0.11,-1.648 l 0.47,-5.06 c -0.79,0.941 -1.73,1.961 -2.83,3.06 -1.1,1.098 -2.39,2.157 -3.88,3.177 -1.41,0.942 -3.02,1.726 -4.83,2.354 -1.8,0.627 -3.84,0.941 -6.12,0.941 z m 65.32,22.949 c -2.75,0 -5.38,-0.314 -7.89,-0.941 -2.51,-0.628 -4.71,-1.452 -6.59,-2.472 -1.88,-1.02 -3.37,-2.118 -4.47,-3.295 -1.1,-1.177 -1.65,-2.275 -1.65,-3.295 0,-0.785 0.12,-1.452 0.35,-2.001 0.24,-0.471 0.59,-0.981 1.06,-1.53 0.79,-0.784 1.41,-1.334 1.89,-1.647 0.47,-0.314 1.09,-0.471 1.88,-0.471 0.78,0 1.57,0.314 2.35,0.941 0.79,0.706 1.73,1.452 2.83,2.236 1.17,0.863 2.59,1.609 4.23,2.236 1.73,0.707 3.85,1.06 6.36,1.06 2.59,0 4.9,-0.393 6.94,-1.177 2.04,-0.785 3.81,-1.962 5.3,-3.531 1.49,-1.569 2.63,-3.491 3.41,-5.766 0.79,-2.197 1.18,-4.708 1.18,-7.532 l -0.24,-48.958 c 0.08,-1.491 0.51,-2.55 1.3,-3.178 0.86,-0.627 2.19,-0.941 4,-0.941 1.49,0 2.55,0.235 3.18,0.706 0.7,0.392 1.13,0.981 1.29,1.765 0.24,0.706 0.35,1.609 0.35,2.707 v 48.722 c 0,4.159 -0.66,7.846 -2,11.063 -1.33,3.295 -3.21,6.08 -5.65,8.356 -2.43,2.275 -5.29,4.001 -8.59,5.178 -3.29,1.177 -6.9,1.765 -10.82,1.765 z m -0.36,-24.361 c -3.76,0 -7.25,-0.667 -10.47,-2.001 -3.14,-1.412 -5.93,-3.373 -8.36,-5.884 -2.35,-2.511 -4.19,-5.453 -5.53,-8.826 -1.25,-3.374 -1.88,-7.062 -1.88,-11.063 0,-4.001 0.63,-7.689 1.88,-11.063 1.34,-3.373 3.18,-6.315 5.53,-8.826 2.36,-2.511 5.1,-4.433 8.24,-5.767 3.22,-1.412 6.71,-2.118 10.47,-2.118 3.46,0 6.6,0.667 9.42,2.001 2.82,1.333 5.22,3.256 7.18,5.766 2.04,2.433 3.57,5.335 4.59,8.709 1.02,3.374 1.53,7.14 1.53,11.298 0,5.649 -0.9,10.553 -2.71,14.711 -1.8,4.158 -4.39,7.375 -7.77,9.65 -3.37,2.275 -7.41,3.413 -12.12,3.413 z m 0.59,-9.65 c 3.14,0 5.96,-0.785 8.47,-2.354 2.51,-1.569 4.52,-3.727 6.01,-6.473 1.49,-2.746 2.23,-5.923 2.23,-9.532 0,-3.531 -0.74,-6.63 -2.23,-9.298 -1.49,-2.746 -3.53,-4.864 -6.12,-6.355 -2.51,-1.49 -5.38,-2.236 -8.59,-2.236 -3.22,0 -6.09,0.746 -8.6,2.236 -2.51,1.491 -4.47,3.609 -5.88,6.355 -1.33,2.668 -2,5.806 -2,9.415 0,3.609 0.71,6.787 2.12,9.533 1.41,2.668 3.37,4.786 5.88,6.355 2.51,1.569 5.42,2.354 8.71,2.354 z m 64.9,11.062 c -3.46,0 -6.67,-0.627 -9.65,-1.883 -2.91,-1.255 -5.46,-3.02 -7.65,-5.296 -2.2,-2.275 -3.93,-5.021 -5.18,-8.238 -1.18,-3.216 -1.77,-6.865 -1.77,-10.944 v -25.538 c 0,-1.099 0.12,-2.04 0.36,-2.825 0.23,-0.785 0.7,-1.373 1.41,-1.765 0.78,-0.471 1.92,-0.706 3.41,-0.706 1.49,0 2.59,0.235 3.3,0.706 0.78,0.47 1.29,1.098 1.53,1.883 0.23,0.784 0.35,1.726 0.35,2.824 v 25.538 c 0,3.217 0.55,6.081 1.65,8.591 1.1,2.432 2.74,4.315 4.94,5.649 2.28,1.334 5.02,2.001 8.24,2.001 3.29,0 6.12,-0.667 8.47,-2.001 2.43,-1.334 4.28,-3.217 5.53,-5.649 1.34,-2.51 2,-5.374 2,-8.591 v -25.655 c 0,-1.099 0.12,-2.04 0.36,-2.825 0.23,-0.785 0.7,-1.373 1.41,-1.765 0.78,-0.471 1.92,-0.706 3.41,-0.706 1.49,0 2.59,0.235 3.3,0.706 0.78,0.47 1.25,1.098 1.41,1.883 0.23,0.784 0.35,1.726 0.35,2.824 v 46.722 c 0,0.941 -0.12,1.804 -0.35,2.589 -0.16,0.706 -0.63,1.255 -1.41,1.647 -0.71,0.393 -1.81,0.589 -3.3,0.589 -1.1,0 -2,-0.118 -2.71,-0.353 -0.62,-0.236 -1.09,-0.549 -1.41,-0.942 -0.31,-0.392 -0.55,-0.823 -0.7,-1.294 -0.08,-0.549 -0.12,-1.099 -0.12,-1.648 l 0.47,-5.06 c -0.78,0.941 -1.73,1.961 -2.82,3.06 -1.1,1.098 -2.4,2.157 -3.89,3.177 -1.41,0.942 -3.02,1.726 -4.82,2.354 -1.81,0.627 -3.85,0.941 -6.12,0.941 z m 68.13,0.471 c -4.7,0 -8.9,-0.785 -12.59,-2.354 -3.69,-1.569 -6.82,-3.687 -9.41,-6.355 -2.51,-2.746 -4.44,-5.884 -5.77,-9.415 -1.33,-3.53 -2,-7.335 -2,-11.415 0,-5.414 1.25,-10.239 3.76,-14.476 2.52,-4.236 5.97,-7.571 10.36,-10.003 4.47,-2.511 9.57,-3.766 15.3,-3.766 3.92,0 7.41,0.628 10.47,1.883 3.14,1.177 5.81,2.785 8.01,4.825 2.19,2.04 3.88,4.315 5.06,6.826 1.17,2.511 1.76,5.021 1.76,7.532 0,4.001 -0.94,6.826 -2.82,8.473 -1.88,1.569 -4.2,2.354 -6.95,2.354 h -34.01 c -0.07,3.452 0.83,6.434 2.71,8.944 1.96,2.432 4.39,4.315 7.3,5.649 2.98,1.334 5.96,2.001 8.94,2.001 2.2,0 4.08,-0.118 5.65,-0.353 1.57,-0.236 2.94,-0.549 4.12,-0.942 1.18,-0.392 2.2,-0.784 3.06,-1.177 0.86,-0.392 1.61,-0.784 2.23,-1.176 0.71,-0.393 1.38,-0.667 2.01,-0.824 0.7,-0.157 1.37,-0.079 2,0.235 0.7,0.235 1.25,0.745 1.64,1.53 0.47,0.628 0.79,1.216 0.95,1.765 0.15,0.55 0.23,1.138 0.23,1.766 0,1.098 -0.94,2.314 -2.82,3.648 -1.89,1.334 -4.51,2.471 -7.89,3.413 -3.29,0.941 -7.06,1.412 -11.3,1.412 z m -18.83,-32.835 h 29.54 c 1.49,0 2.59,-0.196 3.3,-0.588 0.78,-0.392 1.17,-1.451 1.17,-3.177 0,-2.197 -0.66,-4.159 -2,-5.885 -1.33,-1.804 -3.17,-3.256 -5.53,-4.354 -2.27,-1.099 -4.9,-1.648 -7.88,-1.648 -3.45,0 -6.63,0.706 -9.53,2.119 -2.83,1.333 -5.07,3.177 -6.71,5.531 -1.65,2.354 -2.43,5.021 -2.36,8.002 z m 74.5,32.835 c -1.88,0 -3.84,-0.196 -5.88,-0.588 -2.04,-0.393 -4.04,-0.942 -6,-1.648 -1.89,-0.785 -3.57,-1.687 -5.06,-2.707 -1.42,-1.02 -2.47,-2.157 -3.18,-3.413 -0.39,-0.784 -0.63,-1.49 -0.71,-2.118 -0.08,-0.706 0.04,-1.373 0.36,-2.001 0.31,-0.627 0.78,-1.255 1.41,-1.883 0.78,-0.941 1.57,-1.373 2.35,-1.294 0.79,0 1.77,0.51 2.94,1.53 0.87,0.549 1.89,1.177 3.06,1.883 1.18,0.627 2.4,1.216 3.65,1.765 1.26,0.471 2.51,0.902 3.77,1.294 1.33,0.314 2.63,0.471 3.88,0.471 3.61,0 6.51,-0.667 8.71,-2 2.2,-1.413 3.3,-3.256 3.3,-5.532 0,-1.333 -0.28,-2.471 -0.83,-3.413 -0.55,-0.941 -1.29,-1.726 -2.23,-2.353 -0.95,-0.706 -2,-1.295 -3.18,-1.766 -1.18,-0.47 -2.51,-0.902 -4,-1.294 -1.41,-0.471 -2.83,-0.902 -4.24,-1.295 -2.12,-0.549 -4.2,-1.177 -6.24,-1.883 -2.04,-0.706 -3.88,-1.608 -5.53,-2.707 -1.65,-1.176 -2.98,-2.628 -4,-4.354 -1.02,-1.804 -1.53,-4.08 -1.53,-6.826 0,-3.217 0.82,-6.002 2.47,-8.355 1.65,-2.354 3.96,-4.159 6.95,-5.414 2.98,-1.334 6.47,-2.001 10.47,-2.001 1.73,0 3.33,0.118 4.83,0.353 1.49,0.236 2.9,0.628 4.23,1.177 1.41,0.471 2.75,1.059 4,1.765 1.26,0.628 2.47,1.413 3.65,2.354 1.41,0.942 2.16,1.962 2.24,3.06 0.08,1.098 -0.36,2.236 -1.3,3.413 -0.7,1.02 -1.49,1.687 -2.35,2.001 -0.86,0.235 -1.73,0 -2.59,-0.706 -1.26,-0.942 -2.59,-1.766 -4,-2.472 -1.41,-0.706 -2.87,-1.294 -4.36,-1.765 -1.49,-0.471 -3.02,-0.706 -4.59,-0.706 -1.96,0 -3.72,0.314 -5.29,0.941 -1.49,0.549 -2.67,1.412 -3.53,2.589 -0.79,1.099 -1.18,2.354 -1.18,3.766 0,1.256 0.31,2.276 0.94,3.06 0.71,0.785 1.57,1.452 2.59,2.001 1.1,0.549 2.36,1.059 3.77,1.53 1.49,0.392 3.02,0.784 4.59,1.177 2.27,0.549 4.59,1.216 6.94,2 2.43,0.706 4.59,1.687 6.47,2.942 1.97,1.177 3.53,2.786 4.71,4.826 1.26,1.961 1.88,4.589 1.88,7.885 0,5.178 -2.04,9.258 -6.12,12.239 -4.08,2.981 -9.49,4.472 -16.24,4.472 z"
         fill="#034ab1"
         id="path30-5"
         style="fill:#ededed;fill-opacity:1" /></g></g></svg>
